<svg width="24" height="25" viewBox="0 0 24 25" fill="none" xmlns="http://www.w3.org/2000/svg">
<path d="M12.1 20.635C10.8413 20.635 9.66033 20.3973 8.557 19.922C7.45367 19.4467 6.48967 18.7963 5.665 17.971C4.84033 17.1457 4.19 16.1813 3.714 15.078C3.238 13.9747 3 12.7937 3 11.535C3 9.58833 3.56 7.83333 4.68 6.27C5.8 4.70667 7.27867 3.61667 9.116 3C9.04667 4.56 9.28567 6.06033 9.833 7.501C10.3797 8.94167 11.2063 10.215 12.313 11.321C13.4197 12.4277 14.693 13.2547 16.133 13.802C17.573 14.3493 19.0737 14.5883 20.635 14.519C20.0217 16.355 18.9323 17.8333 17.367 18.954C15.8017 20.0747 14.046 20.635 12.1 20.635Z" fill="#76787A"/>
</svg>
