<svg width="16" height="17" viewBox="0 0 16 17" fill="none" xmlns="http://www.w3.org/2000/svg">
<path d="M4 0.447021C3.63184 0.447021 3.33333 0.745504 3.33333 1.11369V2.44702C3.33333 2.81521 3.63184 3.11369 4 3.11369C4.36816 3.11369 4.66667 2.81521 4.66667 2.44702V1.11369C4.66667 0.745504 4.36816 0.447021 4 0.447021Z" fill="#76787A"/>
<path d="M12 0.447021C11.6318 0.447021 11.3333 0.745504 11.3333 1.11369V2.44702C11.3333 2.81521 11.6318 3.11369 12 3.11369C12.3682 3.11369 12.6667 2.81521 12.6667 2.44702V1.11369C12.6667 0.745504 12.3682 0.447021 12 0.447021Z" fill="#76787A"/>
<path d="M5.33333 8.44702C5.33333 9.18341 4.73641 9.78036 4 9.78036C3.26359 9.78036 2.66667 9.18341 2.66667 8.44702C2.66667 7.71063 3.26359 7.11369 4 7.11369C4.73641 7.11369 5.33333 7.71063 5.33333 8.44702Z" fill="#76787A"/>
<path d="M4 13.7804C4.73641 13.7804 5.33333 13.1834 5.33333 12.447C5.33333 11.7106 4.73641 11.1137 4 11.1137C3.26359 11.1137 2.66667 11.7106 2.66667 12.447C2.66667 13.1834 3.26359 13.7804 4 13.7804Z" fill="#76787A"/>
<path d="M8 13.7804C8.73641 13.7804 9.33333 13.1834 9.33333 12.447C9.33333 11.7106 8.73641 11.1137 8 11.1137C7.26359 11.1137 6.66667 11.7106 6.66667 12.447C6.66667 13.1834 7.26359 13.7804 8 13.7804Z" fill="#76787A"/>
<path d="M13.3333 12.447C13.3333 13.1834 12.7364 13.7804 12 13.7804C11.2636 13.7804 10.6667 13.1834 10.6667 12.447C10.6667 11.7106 11.2636 11.1137 12 11.1137C12.7364 11.1137 13.3333 11.7106 13.3333 12.447Z" fill="#76787A"/>
<path d="M9.33333 8.44702C9.33333 9.18341 8.73641 9.78036 8 9.78036C7.26359 9.78036 6.66667 9.18341 6.66667 8.44702C6.66667 7.71063 7.26359 7.11369 8 7.11369C8.73641 7.11369 9.33333 7.71063 9.33333 8.44702Z" fill="#76787A"/>
<path d="M13.3333 8.44702C13.3333 9.18341 12.7364 9.78036 12 9.78036C11.2636 9.78036 10.6667 9.18341 10.6667 8.44702C10.6667 7.71063 11.2636 7.11369 12 7.11369C12.7364 7.11369 13.3333 7.71063 13.3333 8.44702Z" fill="#76787A"/>
<path fill-rule="evenodd" clip-rule="evenodd" d="M2.66667 1.78149V2.44702C2.66667 3.18341 3.26359 3.78035 4 3.78035C4.73641 3.78035 5.33333 3.18341 5.33333 2.44702V1.78035H10.6667V2.44702C10.6667 3.18341 11.2636 3.78035 12 3.78035C12.7364 3.78035 13.3333 3.18341 13.3333 2.44702V1.78149C14.1099 1.78689 14.5542 1.81807 14.908 1.99833C15.2843 2.19008 15.5903 2.49605 15.782 2.87238C16 3.30019 16 3.86025 16 4.98035V13.247C16 14.3671 16 14.9272 15.782 15.355C15.5903 15.7313 15.2843 16.0373 14.908 16.229C14.4801 16.447 13.9201 16.447 12.8 16.447H3.20003C2.07992 16.447 1.51986 16.447 1.09204 16.229C0.715658 16.0373 0.409749 15.7313 0.218018 15.355C0 14.9272 0 14.3671 0 13.247V4.98035C0 3.86025 0 3.30019 0.218018 2.87238C0.409749 2.49605 0.715658 2.19008 1.09204 1.99833C1.4458 1.81807 1.89006 1.78689 2.66667 1.78149ZM1.33333 6.84703C1.33333 6.47365 1.33333 6.28697 1.40601 6.14437C1.46989 6.01892 1.57186 5.91693 1.69735 5.85303C1.83993 5.78035 2.02661 5.78035 2.39998 5.78035H13.6C13.9734 5.78035 14.1601 5.78035 14.3027 5.85303C14.4281 5.91693 14.5301 6.01892 14.594 6.14437C14.6667 6.28697 14.6667 6.47365 14.6667 6.84703V14.047C14.6667 14.4204 14.6667 14.6071 14.594 14.7497C14.5301 14.8751 14.4281 14.9771 14.3027 15.041C14.1601 15.1137 13.9734 15.1137 13.6 15.1137H2.39998C2.02661 15.1137 1.83993 15.1137 1.69735 15.041C1.57186 14.9771 1.46989 14.8751 1.40601 14.7497C1.33333 14.6071 1.33333 14.4204 1.33333 14.047V6.84703Z" fill="#76787A"/>
</svg>
