<svg width="36" height="36" viewBox="0 0 36 36" fill="none" xmlns="http://www.w3.org/2000/svg">
<rect width="36" height="36" rx="18" fill="#F2F3F7"/>
<path d="M2.22011 14.4679C2.42151 14.5108 7.47786 15.4192 13.4555 16.4905C19.4374 17.5617 24.3309 18.4444 24.3309 18.4573C24.3309 18.4701 20.7272 19.46 16.3222 20.6641C11.9172 21.8639 8.31773 22.8537 8.32202 22.858C8.34344 22.8795 13.6698 22.4809 16.7893 22.2281C22.2398 21.7825 24.9094 21.4825 26.5463 21.1312C28.8945 20.6298 30.0215 20.0042 30.9899 18.6673L31.2213 18.3502L31.0842 18.2773C30.7457 18.1016 30.4586 17.626 30.4586 17.2361C30.4586 16.8375 30.7542 16.3619 31.1142 16.1776C31.6755 15.8948 32.4125 16.1305 32.6911 16.6876L32.8025 16.9104C32.8068 16.919 32.9739 16.8761 33.1667 16.8161C33.3638 16.7561 33.5952 16.6919 33.6852 16.679C33.8737 16.649 33.8823 16.6019 33.7538 16.2162C33.4667 15.3592 32.901 14.785 32.0655 14.5065L31.7655 14.4079L16.8107 14.4036C2.58434 14.3951 1.87302 14.3994 2.22011 14.4679Z" fill="#174ABC"/>
<path d="M32.4115 17.2021C31.953 17.5106 31.2116 18.2819 31.2888 18.3634C31.3059 18.3805 31.4602 18.3934 31.6273 18.3934C32.3 18.3891 32.7585 17.9606 32.8057 17.2878C32.8314 16.9364 32.8143 16.9322 32.4115 17.2021Z" fill="#EF11B6"/>
</svg>
