<svg width="30" height="30" viewBox="0 0 30 30" fill="none" xmlns="http://www.w3.org/2000/svg">
<g clip-path="url(#clip0_5531_12319)">
<path d="M15 29.0625C22.7665 29.0625 29.0625 22.7665 29.0625 15C29.0625 7.2335 22.7665 0.9375 15 0.9375C7.2335 0.9375 0.9375 7.2335 0.9375 15C0.9375 22.7665 7.2335 29.0625 15 29.0625Z" fill="#ED4C5C"/>
<path d="M10.3125 13.3125L14.0625 15.9375L12.6562 11.625L16.4062 8.90625H11.7656L10.3125 4.6875L8.90625 8.90625H4.21875L7.96875 11.625L6.5625 15.9375L10.3125 13.3125ZM16.5469 16.5469L15.4688 16.7812L16.5 17.2031V18.2812L17.2031 17.4844L18.2344 17.8594L17.625 16.9688L18.2812 16.125L17.2031 16.3594L16.5469 15.4688V16.5469ZM18.1406 13.3594L17.3438 14.0625L18.4219 13.9688L18.8906 15L19.0781 13.9219L20.1562 13.8281L19.2188 13.2656L19.4531 12.1875L18.6562 12.8906L17.7188 12.3281L18.1406 13.3594ZM18.4219 9.70313L18.75 10.7812L19.0781 9.75H20.1562L19.3125 9.09375L19.6406 8.01563L18.75 8.67188L17.9062 7.96875L18.2344 9.04687L17.3438 9.65625L18.4219 9.70313ZM16.5469 5.95312V7.03125L17.2031 6.14063L18.2812 6.375L17.625 5.53125L18.2344 4.64062L17.2031 5.0625L16.5 4.21875V5.29688L15.4688 5.71875L16.5469 5.95312Z" fill="#FFE62E"/>
</g>
<defs>
<clipPath id="clip0_5531_12319">
<rect width="30" height="30" fill="white"/>
</clipPath>
</defs>
</svg>
