<svg width="15.000000" height="15.000000" viewBox="0 0 15 15" fill="none" xmlns="http://www.w3.org/2000/svg" xmlns:xlink="http://www.w3.org/1999/xlink">
	<desc>
			Created with Pixso.
	</desc>
	<defs/>
	<path id="Vector" d="M9.26 7.49L14.63 2.14C14.86 1.9 14.99 1.58 14.99 1.25C14.99 0.92 14.86 0.6 14.63 0.36C14.39 0.13 14.07 0 13.74 0C13.41 0 13.09 0.13 12.85 0.36L7.5 5.73L2.14 0.36C1.9 0.13 1.58 0 1.25 0C0.92 0 0.6 0.13 0.36 0.36C0.13 0.6 0 0.92 0 1.25C0 1.58 0.13 1.9 0.36 2.14L5.73 7.49L0.36 12.85C0.25 12.97 0.15 13.11 0.09 13.26C0.03 13.41 0 13.57 0 13.74C0 13.9 0.03 14.07 0.09 14.22C0.15 14.37 0.25 14.51 0.36 14.63C0.48 14.74 0.62 14.84 0.77 14.9C0.92 14.96 1.09 15 1.25 15C1.42 15 1.58 14.96 1.73 14.9C1.88 14.84 2.02 14.74 2.14 14.63L7.5 9.25L12.85 14.63C12.97 14.74 13.11 14.84 13.26 14.9C13.41 14.96 13.57 15 13.74 15C13.9 15 14.07 14.96 14.22 14.9C14.37 14.84 14.51 14.74 14.63 14.63C14.74 14.51 14.84 14.37 14.9 14.22C14.96 14.07 15 13.9 15 13.74C15 13.57 14.96 13.41 14.9 13.26C14.84 13.11 14.74 12.97 14.63 12.85L9.26 7.49Z" fill="#141414" fill-opacity="1.000000" fill-rule="nonzero"/>
</svg>
