<svg width="24" height="24" viewBox="0 0 24 24" fill="none" xmlns="http://www.w3.org/2000/svg">
<path fill-rule="evenodd" clip-rule="evenodd" d="M12 3.5C7.313 3.5 3.5 7.313 3.5 12C3.5 16.687 7.313 20.5 12 20.5C16.687 20.5 20.5 16.687 20.5 12C20.5 7.313 16.687 3.5 12 3.5ZM12 22C6.486 22 2 17.514 2 12C2 6.486 6.486 2 12 2C17.514 2 22 6.486 22 12C22 17.514 17.514 22 12 22Z" fill="#5A2B2B"/>
<path fill-rule="evenodd" clip-rule="evenodd" d="M12.004 16.7969C11.451 16.7969 10.999 16.3499 10.999 15.7969C10.999 15.2439 11.442 14.7969 11.994 14.7969H12.004C12.557 14.7969 13.004 15.2439 13.004 15.7969C13.004 16.3499 12.557 16.7969 12.004 16.7969Z" fill="#5A2B2B"/>
<path fill-rule="evenodd" clip-rule="evenodd" d="M11.9941 13.3721C11.5801 13.3721 11.2441 13.0361 11.2441 12.6221V8.20312C11.2441 7.78912 11.5801 7.45312 11.9941 7.45312C12.4081 7.45312 12.7441 7.78912 12.7441 8.20312V12.6221C12.7441 13.0361 12.4081 13.3721 11.9941 13.3721Z" fill="#5A2B2B"/>
</svg>
