<svg width="30" height="30" viewBox="0 0 30 30" fill="none" xmlns="http://www.w3.org/2000/svg">
<g clip-path="url(#clip0_5531_12206)">
<path d="M15 0.9375C8.85937 0.9375 3.65625 4.875 1.73438 10.3125H28.2656C26.3437 4.875 21.1406 0.9375 15 0.9375Z" fill="#ED4C5C"/>
<path d="M15 29.0625C21.1406 29.0625 26.3437 25.1719 28.2656 19.6875H1.73438C3.65625 25.1719 8.85937 29.0625 15 29.0625Z" fill="#3E4347"/>
<path d="M1.73438 10.3125C1.21875 11.7656 0.9375 13.3594 0.9375 15C0.9375 16.6406 1.21875 18.2344 1.73438 19.6875H28.2656C28.7812 18.2344 29.0625 16.6406 29.0625 15C29.0625 13.3594 28.7812 11.7656 28.2656 10.3125H1.73438Z" fill="#F9F9F9"/>
<path d="M14.3438 11.7656C14.4844 11.6719 14.5782 11.7656 14.6719 11.8594C14.7188 11.9531 14.7188 12.2344 14.625 12.5625C14.5782 12.75 14.4375 12.9375 14.3438 13.0781C14.5313 13.0781 14.7657 13.0313 15 12.9375C15.2344 13.0313 15.4219 13.0781 15.6563 13.0781C15.5625 12.8906 15.4688 12.5156 15.5157 12.2344C15.5157 11.8125 15.4688 11.6719 15.375 11.5781C15.2813 11.4844 15.0469 11.4375 14.9063 11.4375C14.8125 11.4375 14.8125 11.4844 14.8125 11.4844C14.625 11.4375 14.4844 11.4375 14.3907 11.4844C14.2969 11.5781 14.2969 11.8125 14.3438 11.7656Z" fill="white"/>
<path d="M17.4844 13.1719C17.3906 12.6562 16.875 12.7969 16.4531 13.0312C16.2656 13.125 16.0781 13.2188 15.8906 13.2188H15.75C15.5156 13.2188 15.2344 13.1719 15 13.0781C14.7656 13.1719 14.4844 13.2188 14.25 13.2188H14.1563C13.9219 13.2188 13.7344 13.125 13.5469 12.9844C13.1719 12.7969 12.6563 12.6562 12.5156 13.125C12.6094 13.0781 12.7031 12.9844 12.75 12.9844L12.5625 17.4844L12.6562 17.3906L12.8437 13.0312C12.8906 13.0781 13.0781 13.2656 13.125 13.2656L12.9844 17.0625L13.125 16.9219L13.2656 13.3125C13.3125 13.3594 13.4531 13.4531 13.5 13.5L13.3594 16.6406L13.7344 16.3125L14.1094 15.0469C13.7812 14.3437 13.8281 13.7344 13.8281 13.7344H13.9219C14.1563 13.7344 14.6719 13.5938 14.9062 13.4531C14.9531 13.4531 14.9531 13.4062 15 13.4062C15 13.4531 15.0469 13.4531 15.0938 13.5C15.3281 13.6406 15.8437 13.7812 16.0781 13.7812H16.1719C16.1719 13.7812 16.2188 14.3906 15.8906 15.0938L16.2187 16.3125L16.5938 16.6406L16.4531 13.5469C16.5 13.5 16.5937 13.4062 16.6875 13.3594L16.8281 16.875L16.9688 17.0156L16.8281 13.2656C16.875 13.2187 17.0625 13.0781 17.1094 13.0312L17.2969 17.3438L17.3906 17.4375L17.2031 12.9844C17.25 13.0313 17.3906 13.125 17.4844 13.1719Z" fill="white"/>
<path d="M14.5781 13.9217V15.7498C14.5781 15.7498 14.5781 15.7967 14.625 15.7967C14.6719 15.8905 14.7656 15.9373 14.8125 16.0311L14.9531 16.1717L15.0938 16.0311L15.3281 15.7967V14.0155C15.1875 13.9686 15.0469 13.9217 14.9531 13.828C14.9062 13.7811 14.7656 13.828 14.5781 13.9217Z" fill="white"/>
<path d="M17.0156 17.7656C17.0156 17.5313 16.7813 17.5312 16.5938 17.5781C16.5469 17.5781 16.5469 17.5781 16.5 17.625L16.2187 16.5938L17.7656 18.0937L17.5781 13.2188C17.5312 12.4688 16.9219 12.6563 16.5 12.9375C16.2656 13.0781 16.0781 13.1719 15.8437 13.1719C15.5156 12.6094 15.7031 11.8594 15.4687 11.6719C15.375 11.5781 15.0469 11.4375 14.8125 11.4375C14.6719 11.4375 14.7187 11.5313 14.7187 11.5313C14.4844 11.4844 14.2969 11.4844 14.2031 11.5781C14.1094 11.625 14.2031 12.0938 14.25 12C14.3906 11.8594 14.4375 11.9063 14.5312 12.0469C14.625 12.1875 14.4375 12.75 14.2031 13.1719C13.9219 13.1719 13.6875 13.0781 13.4531 12.9375C12.9844 12.6563 12.375 12.5156 12.375 13.2188L12.1875 18.0469L13.7344 16.5938L13.4531 17.5781C13.4063 17.5781 13.4062 17.5781 13.3594 17.5313C13.1719 17.4844 12.9375 17.4844 12.9375 17.7188C12.6563 17.6719 12.5625 18.0938 12.8437 18.1875C12.8437 18.3281 12.8437 18.4219 13.0312 18.4219C13.4531 18.5625 14.2031 18.6094 14.9531 18.6094C15.7031 18.6094 16.4531 18.5625 16.875 18.4219C17.0625 18.375 17.0625 18.2812 17.0625 18.1875C17.4375 18.0938 17.2969 17.6719 17.0156 17.7656ZM14.625 15.75C14.625 15.7031 14.625 15.7031 14.625 15.75L14.5781 15.7031V13.9219C14.7656 13.875 14.9062 13.8281 15 13.7344C15.0937 13.8281 15.2344 13.875 15.375 13.9219V15.7031C15.2812 15.7969 15.2344 15.8906 15.1406 15.9375L15 16.0781L14.8594 15.9375C14.7656 15.8906 14.7188 15.7969 14.625 15.75ZM14.625 12.6094C14.7188 12.2812 14.7187 12 14.6719 11.9062C14.5781 11.8125 14.4844 11.7188 14.3438 11.8125C14.2969 11.8594 14.2969 11.625 14.3906 11.5781C14.4844 11.5313 14.625 11.5313 14.8125 11.5781C14.8125 11.5781 14.8125 11.4844 14.9062 11.5313C15.0469 11.5313 15.3281 11.625 15.375 11.6719C15.4219 11.7188 15.5156 11.9062 15.5156 12.3281C15.5156 12.6094 15.5625 12.9844 15.6563 13.1719C15.4688 13.1719 15.2344 13.125 15 13.0312C14.7656 13.125 14.5781 13.1719 14.3438 13.1719C14.4375 12.9844 14.5781 12.7969 14.625 12.6094ZM13.4063 16.7812L13.5469 13.6406C13.5 13.5938 13.4062 13.5 13.3125 13.4531L13.125 17.0156L12.9844 17.1562L13.125 13.3594C13.0781 13.3125 12.8906 13.1719 12.8437 13.125L12.6562 17.4844L12.5625 17.5781L12.75 13.0781C12.7031 13.0781 12.5625 13.125 12.5156 13.2188C12.6563 12.75 13.1719 12.8906 13.5469 13.125C13.7344 13.2656 13.9688 13.3125 14.1563 13.3594H14.25C14.4844 13.3594 14.7187 13.3125 15 13.2188C15.2812 13.3125 15.5156 13.3594 15.75 13.3594H15.8906C16.0781 13.3125 16.2656 13.2656 16.4531 13.1719C16.875 12.9375 17.3906 12.7969 17.4844 13.3125C17.3906 13.2656 17.25 13.1719 17.2031 13.1719L17.3906 17.625L17.2969 17.5313L17.1094 13.125C17.0625 13.1719 16.875 13.3594 16.8281 13.3594L16.9688 17.1094L16.8281 16.9688L16.6875 13.4531C16.6406 13.5 16.5 13.5938 16.4531 13.6406L16.5938 16.7344L16.2187 16.4062L15.8906 15.1875C16.2188 14.4844 16.1719 13.875 16.1719 13.875H16.0781C15.8437 13.875 15.3281 13.7813 15.0938 13.5938C15.0469 13.5938 15.0469 13.5469 15 13.5C15 13.5 14.9531 13.5469 14.9062 13.5469C14.6719 13.6875 14.1563 13.8281 13.9219 13.8281H13.8281C13.8281 13.8281 13.7813 14.4375 14.1094 15.1406L13.7344 16.4062L13.4063 16.7812ZM15 17.7188H14.4844L14.8125 16.125C14.8594 16.1719 14.9062 16.2188 15 16.2656C15.0469 16.2188 15.1406 16.1719 15.1875 16.125L15.5625 17.7188H15Z" fill="#C09300"/>
</g>
<defs>
<clipPath id="clip0_5531_12206">
<rect width="30" height="30" fill="white"/>
</clipPath>
</defs>
</svg>
