<svg width="214" height="52" viewBox="0 0 214 52" fill="none" xmlns="http://www.w3.org/2000/svg">
<path d="M6 46C38.3962 14.1134 139.873 -6.24866 208 46" stroke="url(#paint0_linear_152_8293)" stroke-width="2"/>
<circle cx="6" cy="46" r="4.25" stroke="#235DFF" stroke-width="1.5"/>
<circle cx="208" cy="46" r="4.25" stroke="#235DFF" stroke-width="1.5"/>
<path d="M103.206 25.375H101.75C101.604 25.375 101.46 25.3382 101.332 25.2682C101.203 25.1982 101.095 25.0971 101.015 24.9741C100.936 24.8512 100.889 24.7103 100.878 24.5644C100.867 24.4186 100.893 24.2723 100.954 24.1391L104.479 16.3598L99.1856 16.2422L97.2551 18.5812C96.8871 19.0438 96.5934 19.25 95.8442 19.25H94.8642C94.709 19.255 94.5549 19.2225 94.415 19.1553C94.275 19.0881 94.1534 18.9881 94.0603 18.8639C93.9301 18.6884 93.8021 18.3909 93.9268 17.9665L95.0107 14.0837C95.0189 14.0547 95.0288 14.0257 95.0397 13.9973C95.0403 13.9946 95.0403 13.9918 95.0397 13.9891C95.0284 13.9606 95.0187 13.9316 95.0107 13.9021L93.9257 9.99469C93.8081 9.57852 93.9367 9.28758 94.0657 9.11641C94.1524 9.00141 94.2648 8.90835 94.394 8.84471C94.5232 8.78108 94.6655 8.74864 94.8095 8.75H95.8442C96.4036 8.75 96.9467 9.00102 97.266 9.40625L99.1566 11.7059L104.479 11.6271L100.955 3.86148C100.894 3.72829 100.868 3.58208 100.879 3.43621C100.89 3.29035 100.937 3.14948 101.016 3.02649C101.095 2.9035 101.204 2.80231 101.332 2.73218C101.46 2.66204 101.604 2.62519 101.75 2.625H103.222C103.427 2.62913 103.629 2.67945 103.812 2.77223C103.996 2.86501 104.155 2.99787 104.28 3.16094L111.119 11.4734L114.278 11.3903C114.51 11.3777 115.15 11.3734 115.299 11.3734C118.321 11.375 120.125 12.3561 120.125 14C120.125 14.5173 119.919 15.4766 118.536 16.0869C117.719 16.4478 116.63 16.6305 115.298 16.6305C115.151 16.6305 114.512 16.6261 114.277 16.6135L111.118 16.5293L104.263 24.8418C104.138 25.0041 103.978 25.1364 103.795 25.2286C103.612 25.3209 103.411 25.371 103.206 25.375Z" fill="#235DFF"/>
<defs>
<linearGradient id="paint0_linear_152_8293" x1="107" y1="22" x2="107" y2="60.2222" gradientUnits="userSpaceOnUse">
<stop stop-color="#235DFF"/>
<stop offset="0.473958" stop-color="#235DFF" stop-opacity="0.04"/>
<stop offset="0.651042" stop-color="#235DFF" stop-opacity="0"/>
<stop offset="0.833333" stop-color="#235DFF" stop-opacity="0"/>
<stop offset="1" stop-color="#235DFF" stop-opacity="0"/>
</linearGradient>
</defs>
</svg>
