<svg width="26.000000" height="27.000000" viewBox="0 0 26 27" fill="none" xmlns="http://www.w3.org/2000/svg" xmlns:xlink="http://www.w3.org/1999/xlink">
	<desc>
			Created with Pixso.
	</desc>
	<defs/>
	<path id="Symbol" d="M14.82 25.05L23.86 14.4L23.86 14.4C24.43 13.73 24.88 13 25.22 12.23C25.79 10.95 26.05 9.52 25.99 7.96C25.93 6.38 25.56 4.97 24.88 3.74C24.47 2.99 23.95 2.31 23.32 1.69C22.48 0.87 21.56 0.31 20.56 0C19.74 -0.26 18.86 -0.34 17.94 -0.25C17.29 -0.19 16.67 -0.04 16.09 0.18C14.89 0.63 13.81 1.41 12.86 2.52C11.97 1.47 10.97 0.71 9.85 0.25C9.2 -0.01 8.52 -0.18 7.79 -0.25C6.85 -0.34 5.96 -0.26 5.12 0.01C4.13 0.32 3.22 0.88 2.39 1.69C1.76 2.31 1.24 2.99 0.83 3.73C0.15 4.97 -0.22 6.38 -0.28 7.96C-0.34 9.52 -0.08 10.94 0.49 12.22C0.83 13 1.28 13.72 1.85 14.4L10.89 25.05C11.17 25.39 11.49 25.64 11.85 25.79C12.15 25.93 12.49 26 12.86 26C13.22 26 13.56 25.93 13.87 25.79C14.23 25.64 14.54 25.39 14.82 25.05ZM13.9 24.28L22.95 13.63C25.56 10.54 25.42 5.42 22.48 2.54C19.92 0.04 16.14 0.52 13.76 3.29L13.65 3.43L12.88 4.36L12.08 3.45L11.95 3.29C9.62 0.52 5.79 0.04 3.23 2.54C0.29 5.42 0.15 10.54 2.76 13.63L11.81 24.28C12.37 24.98 13.34 24.98 13.9 24.28Z" fill="#235DFF" fill-opacity="1.000000" fill-rule="evenodd"/>
</svg>
