<svg width="236" height="47" viewBox="0 0 236 47" fill="none" xmlns="http://www.w3.org/2000/svg">
<path d="M44.692 17.8189C44.522 17.5549 44.3642 17.195 44.2185 16.739C44.0728 16.2831 44 15.8031 44 15.2992C44 14.3633 44.2064 13.6914 44.6192 13.2835C45.0562 12.8755 45.6147 12.6715 46.2945 12.6715H62.1741C62.3441 12.9355 62.5019 13.2955 62.6476 13.7514C62.7933 14.2073 62.8661 14.6873 62.8661 15.1912C62.8661 16.1271 62.6476 16.799 62.2105 17.207C61.7978 17.6149 61.2515 17.8189 60.5716 17.8189H56.5289V34.4488C56.2618 34.5208 55.8369 34.5928 55.2541 34.6648C54.6957 34.7368 54.1372 34.7728 53.5787 34.7728C53.0203 34.7728 52.5225 34.7248 52.0855 34.6288C51.6727 34.5568 51.3206 34.4128 51.0293 34.1968C50.7379 33.9809 50.5194 33.6809 50.3737 33.297C50.228 32.913 50.1552 32.4091 50.1552 31.7852V17.8189H44.692Z" fill="#235DFF"/>
<path d="M70.2095 34.5568C69.9667 34.6288 69.5782 34.7008 69.0441 34.7728C68.5342 34.8448 68 34.8808 67.4415 34.8808C66.9073 34.8808 66.4217 34.8448 65.9847 34.7728C65.5719 34.7008 65.2198 34.5568 64.9285 34.3408C64.6371 34.1249 64.4064 33.8369 64.2365 33.4769C64.0908 33.093 64.0179 32.601 64.0179 32.0011V21.2025C64.0179 20.6505 64.1151 20.1826 64.3093 19.7986C64.5278 19.3907 64.8313 19.0307 65.2198 18.7188C65.6083 18.4068 66.0818 18.1309 66.6403 17.8909C67.223 17.6269 67.8422 17.3989 68.4977 17.207C69.1533 17.015 69.8332 16.871 70.5373 16.775C71.2415 16.655 71.9456 16.5951 72.6497 16.5951C73.8152 16.5951 74.7379 16.823 75.4177 17.279C76.0976 17.7109 76.4375 18.4308 76.4375 19.4387C76.4375 19.7747 76.389 20.1106 76.2919 20.4466C76.1947 20.7585 76.0733 21.0465 75.9276 21.3105C75.4177 21.3105 74.8957 21.3345 74.3615 21.3825C73.8274 21.4304 73.3053 21.5024 72.7954 21.5984C72.2855 21.6944 71.7999 21.8024 71.3386 21.9224C70.9015 22.0184 70.5252 22.1384 70.2095 22.2823V34.5568Z" fill="#235DFF"/>
<path d="M78.8462 12.2396C78.8462 11.3277 79.1497 10.5598 79.7567 9.93588C80.388 9.31196 81.2135 9 82.2333 9C83.2531 9 84.0665 9.31196 84.6735 9.93588C85.3048 10.5598 85.6205 11.3277 85.6205 12.2396C85.6205 13.1515 85.3048 13.9194 84.6735 14.5433C84.0665 15.1672 83.2531 15.4792 82.2333 15.4792C81.2135 15.4792 80.388 15.1672 79.7567 14.5433C79.1497 13.9194 78.8462 13.1515 78.8462 12.2396ZM85.3291 34.5568C85.062 34.6048 84.6614 34.6648 84.1272 34.7368C83.6173 34.8328 83.0953 34.8808 82.5611 34.8808C82.0269 34.8808 81.5413 34.8448 81.1043 34.7728C80.6915 34.7008 80.3394 34.5568 80.0481 34.3408C79.7567 34.1249 79.526 33.8369 79.3561 33.4769C79.2104 33.093 79.1375 32.601 79.1375 32.0011V17.351C79.4046 17.303 79.7931 17.243 80.303 17.171C80.8372 17.075 81.3714 17.027 81.9055 17.027C82.4397 17.027 82.9132 17.063 83.326 17.135C83.763 17.207 84.1272 17.351 84.4186 17.5669C84.71 17.7829 84.9285 18.0829 85.0742 18.4668C85.2441 18.8268 85.3291 19.3067 85.3291 19.9066V34.5568Z" fill="#235DFF"/>
<path d="M97.3927 16.5591C98.8496 16.5591 100.197 16.751 101.435 17.135C102.698 17.4949 103.779 18.0589 104.677 18.8268C105.575 19.5947 106.279 20.5666 106.789 21.7424C107.299 22.8943 107.554 24.2741 107.554 25.8819C107.554 27.4177 107.336 28.7615 106.899 29.9134C106.462 31.0652 105.842 32.0371 105.041 32.829C104.24 33.5969 103.269 34.1729 102.127 34.5568C101.011 34.9408 99.7601 35.1327 98.3761 35.1327C97.332 35.1327 96.3608 34.9768 95.4624 34.6648V40.64C95.2196 40.712 94.8311 40.784 94.297 40.856C93.7628 40.952 93.2165 41 92.658 41C92.1238 41 91.6382 40.964 91.2012 40.892C90.7884 40.82 90.4363 40.676 90.145 40.4601C89.8536 40.2441 89.6351 39.9441 89.4894 39.5602C89.3437 39.2002 89.2708 38.7203 89.2708 38.1204V20.8425C89.2708 20.1946 89.4044 19.6667 89.6715 19.2587C89.9628 18.8508 90.3513 18.4788 90.837 18.1429C91.5897 17.6629 92.5245 17.279 93.6414 16.991C94.7583 16.703 96.0087 16.5591 97.3927 16.5591ZM97.4656 30.3093C99.9665 30.3093 101.217 28.8335 101.217 25.8819C101.217 24.3461 100.901 23.2062 100.27 22.4623C99.663 21.7184 98.7767 21.3465 97.6113 21.3465C97.1499 21.3465 96.7372 21.4064 96.373 21.5264C96.0087 21.6224 95.6931 21.7424 95.426 21.8864V29.8054C95.7174 29.9494 96.033 30.0694 96.373 30.1654C96.7129 30.2613 97.0771 30.3093 97.4656 30.3093Z" fill="#235DFF"/>
<path d="M110.576 17.351C110.819 17.279 111.195 17.207 111.705 17.135C112.239 17.063 112.785 17.027 113.344 17.027C113.878 17.027 114.351 17.063 114.764 17.135C115.201 17.207 115.565 17.351 115.857 17.5669C116.148 17.7829 116.367 18.0829 116.512 18.4668C116.682 18.8268 116.767 19.3067 116.767 19.9066V27.6457C116.767 28.6295 117.01 29.3375 117.496 29.7694C117.981 30.1774 118.686 30.3813 119.608 30.3813C120.167 30.3813 120.616 30.3333 120.956 30.2373C121.32 30.1414 121.599 30.0454 121.793 29.9494V17.351C122.036 17.279 122.413 17.207 122.923 17.135C123.457 17.063 124.003 17.027 124.561 17.027C125.096 17.027 125.569 17.063 125.982 17.135C126.419 17.207 126.783 17.351 127.075 17.5669C127.366 17.7829 127.584 18.0829 127.73 18.4668C127.9 18.8268 127.985 19.3067 127.985 19.9066V30.8493C127.985 32.0491 127.475 32.949 126.455 33.5489C125.606 34.0769 124.586 34.4728 123.396 34.7368C122.231 35.0247 120.956 35.1687 119.572 35.1687C118.261 35.1687 117.047 35.0247 115.93 34.7368C114.837 34.4488 113.89 34.0049 113.089 33.4049C112.288 32.805 111.668 32.0371 111.231 31.1012C110.794 30.1414 110.576 28.9895 110.576 27.6457V17.351Z" fill="#235DFF"/>
<path d="M146.707 29.3735C146.707 31.1972 146.015 32.625 144.631 33.6569C143.247 34.6888 141.207 35.2047 138.512 35.2047C137.492 35.2047 136.545 35.1327 135.671 34.9888C134.797 34.8448 134.044 34.6288 133.413 34.3408C132.806 34.0289 132.32 33.6449 131.956 33.189C131.616 32.733 131.446 32.1931 131.446 31.5692C131.446 30.9933 131.568 30.5133 131.81 30.1294C132.053 29.7214 132.345 29.3855 132.685 29.1215C133.389 29.5054 134.19 29.8534 135.088 30.1654C136.011 30.4533 137.067 30.5973 138.257 30.5973C139.01 30.5973 139.58 30.4893 139.969 30.2733C140.381 30.0574 140.588 29.7694 140.588 29.4094C140.588 29.0735 140.442 28.8095 140.151 28.6175C139.859 28.4256 139.374 28.2696 138.694 28.1496L137.601 27.9336C135.489 27.5257 133.911 26.8898 132.867 26.0259C131.847 25.138 131.337 23.8781 131.337 22.2463C131.337 21.3585 131.531 20.5546 131.92 19.8346C132.308 19.1147 132.854 18.5148 133.559 18.0349C134.263 17.5549 135.1 17.183 136.072 16.919C137.067 16.655 138.16 16.5231 139.35 16.5231C140.248 16.5231 141.086 16.595 141.863 16.739C142.664 16.859 143.356 17.051 143.939 17.315C144.521 17.5789 144.983 17.9269 145.323 18.3588C145.663 18.7668 145.833 19.2587 145.833 19.8346C145.833 20.3866 145.723 20.8665 145.505 21.2745C145.31 21.6584 145.056 21.9824 144.74 22.2463C144.546 22.1264 144.254 22.0064 143.866 21.8864C143.477 21.7424 143.052 21.6224 142.591 21.5264C142.13 21.4064 141.656 21.3105 141.171 21.2385C140.709 21.1665 140.284 21.1305 139.896 21.1305C139.095 21.1305 138.475 21.2265 138.038 21.4184C137.601 21.5864 137.383 21.8624 137.383 22.2463C137.383 22.5103 137.504 22.7263 137.747 22.8943C137.99 23.0622 138.451 23.2182 139.131 23.3622L140.26 23.6142C142.591 24.1421 144.242 24.874 145.213 25.8099C146.209 26.7218 146.707 27.9096 146.707 29.3735Z" fill="#235DFF"/>
<path d="M167 31.4252C166.879 32.5531 166.539 33.4169 165.98 34.0169C165.446 34.6168 164.657 34.9168 163.613 34.9168C162.836 34.9168 162.144 34.7368 161.537 34.3768C160.93 33.9929 160.274 33.357 159.57 32.4691L155.964 28.0056V34.5568C155.697 34.6048 155.297 34.6648 154.763 34.7368C154.253 34.8328 153.731 34.8808 153.196 34.8808C152.662 34.8808 152.177 34.8448 151.74 34.7728C151.327 34.7008 150.975 34.5568 150.683 34.3408C150.392 34.1249 150.161 33.8369 149.991 33.4769C149.846 33.093 149.773 32.601 149.773 32.0011V11.1597C150.04 11.0877 150.428 11.0157 150.938 10.9438C151.472 10.8478 152.007 10.7998 152.541 10.7998C153.075 10.7998 153.548 10.8358 153.961 10.9078C154.398 10.9798 154.763 11.1237 155.054 11.3397C155.345 11.5557 155.564 11.8556 155.709 12.2396C155.879 12.5996 155.964 13.0795 155.964 13.6794V23.1822L162.229 16.847C163.491 16.847 164.499 17.123 165.252 17.6749C166.029 18.2268 166.417 18.9228 166.417 19.7627C166.417 20.1226 166.357 20.4586 166.235 20.7705C166.114 21.0585 165.92 21.3585 165.652 21.6704C165.41 21.9824 165.082 22.3183 164.669 22.6783C164.281 23.0142 163.819 23.4102 163.285 23.8661L161.173 25.6659L167 31.4252Z" fill="#235DFF"/>
<path d="M182.248 23H185.56V35H182.236L182.08 33.752C181.768 34.216 181.368 34.592 180.88 34.88C180.392 35.168 179.82 35.312 179.164 35.312C178.268 35.312 177.432 35.144 176.656 34.808C175.88 34.472 175.196 34.008 174.604 33.416C174.012 32.824 173.548 32.14 173.212 31.364C172.884 30.58 172.72 29.74 172.72 28.844C172.72 27.988 172.876 27.188 173.188 26.444C173.5 25.7 173.94 25.044 174.508 24.476C175.076 23.908 175.728 23.464 176.464 23.144C177.208 22.824 178.008 22.664 178.864 22.664C179.6 22.664 180.26 22.82 180.844 23.132C181.436 23.444 181.952 23.84 182.392 24.32L182.248 23ZM179.08 32.132C179.624 32.132 180.116 31.992 180.556 31.712C180.996 31.432 181.344 31.056 181.6 30.584C181.856 30.104 181.984 29.576 181.984 29C181.984 28.416 181.856 27.888 181.6 27.416C181.344 26.944 180.996 26.568 180.556 26.288C180.116 26.008 179.624 25.868 179.08 25.868C178.528 25.868 178.028 26.008 177.58 26.288C177.132 26.568 176.776 26.948 176.512 27.428C176.248 27.9 176.116 28.424 176.116 29C176.116 29.576 176.248 30.104 176.512 30.584C176.784 31.056 177.144 31.432 177.592 31.712C178.04 31.992 178.536 32.132 179.08 32.132ZM196.449 23H199.761V35.168C199.761 36.056 199.581 36.856 199.221 37.568C198.861 38.288 198.369 38.904 197.745 39.416C197.129 39.928 196.417 40.32 195.609 40.592C194.809 40.864 193.961 41 193.065 41C192.217 41 191.405 40.832 190.629 40.496C189.853 40.168 189.165 39.712 188.565 39.128C187.965 38.544 187.497 37.872 187.161 37.112L190.185 35.732C190.353 36.132 190.581 36.476 190.869 36.764C191.165 37.052 191.501 37.272 191.877 37.424C192.261 37.584 192.657 37.664 193.065 37.664C193.505 37.664 193.925 37.612 194.325 37.508C194.733 37.404 195.097 37.248 195.417 37.04C195.737 36.832 195.989 36.572 196.173 36.26C196.357 35.948 196.449 35.584 196.449 35.168V33.776C196.081 34.232 195.633 34.604 195.105 34.892C194.585 35.172 193.981 35.312 193.293 35.312C192.429 35.312 191.617 35.148 190.857 34.82C190.105 34.492 189.441 34.04 188.865 33.464C188.289 32.88 187.837 32.208 187.509 31.448C187.181 30.688 187.017 29.872 187.017 29C187.017 28.128 187.181 27.312 187.509 26.552C187.837 25.792 188.289 25.124 188.865 24.548C189.441 23.964 190.105 23.508 190.857 23.18C191.617 22.852 192.429 22.688 193.293 22.688C193.981 22.688 194.585 22.832 195.105 23.12C195.633 23.4 196.081 23.768 196.449 24.224V23ZM193.341 32.132C193.885 32.132 194.377 31.992 194.817 31.712C195.257 31.424 195.601 31.044 195.849 30.572C196.105 30.1 196.233 29.576 196.233 29C196.233 28.424 196.105 27.9 195.849 27.428C195.601 26.948 195.257 26.568 194.817 26.288C194.377 26.008 193.885 25.868 193.341 25.868C192.805 25.868 192.313 26.008 191.865 26.288C191.425 26.568 191.073 26.948 190.809 27.428C190.545 27.9 190.413 28.424 190.413 29C190.413 29.576 190.545 30.104 190.809 30.584C191.073 31.056 191.425 31.432 191.865 31.712C192.313 31.992 192.805 32.132 193.341 32.132ZM207.595 35.312C206.491 35.312 205.483 35.028 204.571 34.46C203.667 33.892 202.943 33.128 202.399 32.168C201.863 31.208 201.595 30.148 201.595 28.988C201.595 28.116 201.751 27.3 202.063 26.54C202.375 25.772 202.803 25.1 203.347 24.524C203.899 23.94 204.539 23.484 205.267 23.156C205.995 22.828 206.771 22.664 207.595 22.664C208.547 22.664 209.415 22.868 210.199 23.276C210.991 23.684 211.659 24.24 212.203 24.944C212.755 25.648 213.147 26.444 213.379 27.332C213.619 28.22 213.659 29.144 213.499 30.104H205.171C205.275 30.456 205.435 30.776 205.651 31.064C205.875 31.344 206.147 31.568 206.467 31.736C206.795 31.904 207.171 31.992 207.595 32C208.011 32.008 208.395 31.912 208.747 31.712C209.099 31.512 209.399 31.244 209.647 30.908L213.031 31.688C212.543 32.752 211.815 33.624 210.847 34.304C209.879 34.976 208.795 35.312 207.595 35.312ZM205.051 27.656H210.151C210.047 27.256 209.871 26.896 209.623 26.576C209.375 26.256 209.075 26.004 208.723 25.82C208.379 25.636 208.003 25.544 207.595 25.544C207.195 25.544 206.819 25.636 206.467 25.82C206.123 26.004 205.827 26.256 205.579 26.576C205.339 26.888 205.163 27.248 205.051 27.656ZM226.565 27.368V35H223.253V28.28C223.253 27.856 223.149 27.476 222.941 27.14C222.741 26.796 222.469 26.524 222.125 26.324C221.789 26.124 221.413 26.024 220.997 26.024C220.581 26.024 220.201 26.124 219.857 26.324C219.513 26.524 219.241 26.796 219.041 27.14C218.841 27.476 218.741 27.856 218.741 28.28V35H215.429L215.417 23H218.729L218.741 23.888C219.141 23.504 219.609 23.204 220.145 22.988C220.689 22.772 221.261 22.664 221.861 22.664C222.733 22.664 223.521 22.876 224.225 23.3C224.937 23.724 225.505 24.292 225.929 25.004C226.353 25.708 226.565 26.496 226.565 27.368ZM235.491 26.312H233.331V35H230.019V26.312H228.363V23H230.019V19.232H233.331V23H235.491V26.312Z" fill="#235DFF"/>
<path fill-rule="evenodd" clip-rule="evenodd" d="M0.0271332 18.4744C1.05096 21.4266 3.75616 22.9817 10.7953 19.0137C18.1967 14.8415 25.4905 10.7348 30.5409 7.89247C30.522 7.86119 30.5031 7.82995 30.484 7.79876C24.1367 -2.59959 9.065 -2.59959 2.71769 7.79876C0.724864 11.0635 -0.171989 14.7921 0.0271332 18.4744Z" fill="#FEC23D"/>
<path d="M4.96381 21.2043C4.96381 21.2043 6.51011 21.5609 12.558 17.9614C17.9275 14.9432 23.2191 11.9722 26.883 9.91601C26.8693 9.89336 26.8556 9.87075 26.8418 9.84816C22.2369 2.32568 11.3026 2.32568 6.69768 9.84816C5.25196 12.2099 4.8194 18.5405 4.96381 21.2043Z" fill="#FD9640"/>
<path d="M4.79218 29.9923C5.68686 28.2711 9.90892 21.8059 9.90892 24.8661C9.90892 25.4589 10.2648 27.1187 11.2139 27.1187C11.6207 27.1187 12.4424 26.2959 13.3778 25.3591C14.7423 23.9926 16.3491 22.3836 17.264 22.7319C17.6343 22.8729 17.7218 23.4447 17.8008 23.961C17.8738 24.4371 17.9394 24.8661 18.213 24.8661C18.4666 24.8661 19.0812 23.7155 19.8427 22.2902C21.2192 19.7137 23.0753 16.2394 24.1446 17.0409C24.557 17.3501 24.8524 17.8494 25.1034 18.2736C25.3578 18.7036 25.5666 19.0565 25.8054 19.0565C26.2405 19.0565 26.8333 17.9733 27.4874 16.7781C28.4381 15.0409 29.5183 13.067 30.432 13.8397C31.9742 15.1439 32.5673 17.0409 32.5673 17.0409C32.5673 17.0409 33.1375 16.6847 33.2835 14.9787C32.8995 12.8759 32.1002 10.7947 30.8854 8.7836V8.78133C30.8854 8.78133 30.8791 8.77323 30.8854 8.7836C25.8288 11.6217 18.5259 15.7225 11.1154 19.8885C5.31286 23.1506 2.66984 24.5664 1.3449 23.3199C1.26875 23.2482 1.17887 23.1684 1.13047 23.2009C1.07514 23.238 1.09702 23.3324 1.13041 23.4273C1.3655 24.0663 1.92802 25.3056 2.28176 25.8874C2.47419 26.204 2.71841 26.6042 3.02773 27.1096L4.79218 29.9923Z" fill="#DFDDDD"/>
<path d="M27.9816 31.8901C27.7633 31.0937 27.3248 30.301 26.1284 30.3611C24.7571 30.43 23.9434 32.2192 23.2245 33.7999C22.7059 34.9402 22.2367 35.972 21.6431 36.1708C20.8901 36.4229 20.9043 35.8375 20.9232 35.0556C20.9399 34.3666 20.9603 33.525 20.4627 32.9696C19.7983 32.2281 18.4877 34.0834 17.1658 35.9546C16.3741 37.0754 15.5783 38.2018 14.915 38.7792C14.0575 39.5257 14.0583 38.687 14.0592 37.7447C14.0601 36.7413 14.0611 35.6205 13.0264 36.1708C11.8323 36.8058 11.5221 38.9673 11.5225 40.7324L14.4417 45.5259C15.6386 47.4913 18.4806 47.4913 19.6776 45.5259L27.9816 31.8901Z" fill="#0450C2"/>
</svg>
