<svg width="133.000000" height="28.000000" viewBox="0 0 133 28" fill="none" xmlns="http://www.w3.org/2000/svg" xmlns:xlink="http://www.w3.org/1999/xlink">
	<desc>
			Created with Pixso.
	</desc>
	<defs/>
	<path id="Intersect" d="M0.01 10.61C0.61 12.35 2.21 13.27 6.36 10.93C10.72 8.47 15.02 6.05 18 4.38C17.98 4.36 17.97 4.34 17.96 4.32C14.22 -1.81 5.34 -1.81 1.6 4.32C0.42 6.25 -0.11 8.44 0.01 10.61Z" fill="#FEC23D" fill-opacity="1.000000" fill-rule="evenodd"/>
	<path id="Intersect" d="M2.92 12.22C2.92 12.22 3.83 12.43 7.4 10.31C10.56 8.53 13.68 6.78 15.84 5.57C15.83 5.56 15.82 5.54 15.82 5.53C13.1 1.1 6.66 1.1 3.94 5.53C3.09 6.92 2.84 10.65 2.92 12.22Z" fill="#FD9640" fill-opacity="1.000000" fill-rule="nonzero"/>
	<path id="Intersect" d="M2.82 17.4C3.35 16.39 5.84 12.58 5.84 14.38C5.84 14.73 6.05 15.71 6.6 15.71C6.84 15.71 7.33 15.22 7.88 14.67C8.68 13.87 9.63 12.92 10.17 13.12C10.39 13.21 10.44 13.54 10.49 13.85C10.53 14.13 10.57 14.38 10.73 14.38C10.88 14.38 11.24 13.7 11.69 12.86C12.5 11.34 13.6 9.3 14.23 9.77C14.47 9.95 14.64 10.25 14.79 10.5C14.94 10.75 15.06 10.96 15.2 10.96C15.46 10.96 15.81 10.32 16.2 9.61C16.76 8.59 17.39 7.43 17.93 7.88C18.84 8.65 19.19 9.77 19.19 9.77C19.19 9.77 19.53 9.56 19.61 8.55C19.39 7.31 18.91 6.09 18.2 4.9L18.2 4.9C18.2 4.9 18.2 4.9 18.2 4.9C15.22 6.58 10.91 8.99 6.55 11.45C3.13 13.37 1.57 14.21 0.79 13.47C0.74 13.43 0.69 13.38 0.66 13.4C0.63 13.42 0.64 13.48 0.66 13.53C0.8 13.91 1.13 14.64 1.34 14.98C1.45 15.17 1.6 15.41 1.78 15.7L2.82 17.4Z" fill="#F7F7F7" fill-opacity="1.000000" fill-rule="nonzero"/>
	<path id="Intersect" d="M16.49 18.52C16.36 18.05 16.1 17.58 15.39 17.62C14.59 17.66 14.11 18.71 13.68 19.65C13.38 20.32 13.1 20.93 12.75 21.04C12.31 21.19 12.32 20.85 12.33 20.39C12.34 19.98 12.35 19.48 12.06 19.16C11.66 18.72 10.89 19.81 10.11 20.92C9.65 21.58 9.18 22.24 8.79 22.58C8.28 23.02 8.28 22.53 8.28 21.97C8.28 21.38 8.28 20.72 7.67 21.04C6.97 21.42 6.79 22.69 6.79 23.73L8.51 26.56C9.21 27.72 10.89 27.72 11.59 26.56L16.49 18.52Z" fill="#0450C2" fill-opacity="1.000000" fill-rule="nonzero"/>
	<path id="Tripusk" d="M43.01 11.03C43.01 10.51 43.18 10.07 43.52 9.71C43.88 9.35 44.35 9.17 44.93 9.17Q45.57 9.17 46.02 9.46Q46.18 9.57 46.31 9.71C46.67 10.07 46.85 10.51 46.85 11.03C46.85 11.55 46.67 11.99 46.31 12.35Q46.18 12.49 46.02 12.59Q45.57 12.89 44.93 12.89C44.35 12.89 43.88 12.71 43.52 12.35Q43.31 12.13 43.19 11.87Q43.01 11.49 43.01 11.03ZM93 22.03C92.93 22.68 92.73 23.17 92.42 23.52C92.11 23.86 91.67 24.03 91.07 24.03C90.63 24.03 90.24 23.93 89.9 23.72C89.55 23.5 89.18 23.14 88.78 22.63L86.74 20.07L86.74 23.83C86.59 23.85 86.36 23.89 86.06 23.93C85.77 23.98 85.47 24.01 85.17 24.01C84.86 24.01 84.59 23.99 84.34 23.95C84.11 23.91 83.91 23.83 83.74 23.7C83.58 23.58 83.45 23.41 83.35 23.21C83.27 22.99 83.23 22.7 83.23 22.36L83.23 10.41C83.38 10.37 83.6 10.33 83.89 10.29Q84.34 10.2 84.8 10.2C85.1 10.2 85.37 10.22 85.6 10.26C85.85 10.31 86.06 10.39 86.22 10.51C86.39 10.64 86.51 10.81 86.59 11.03C86.69 11.24 86.74 11.51 86.74 11.85L86.74 17.3L90.29 13.67C91.01 13.67 91.58 13.83 92 14.15C92.44 14.46 92.66 14.86 92.66 15.34C92.66 15.55 92.63 15.74 92.56 15.92C92.49 16.08 92.38 16.26 92.23 16.44C92.09 16.62 91.91 16.81 91.67 17.01C91.45 17.21 91.19 17.43 90.89 17.7L89.69 18.73L93 22.03ZM23.64 14.23C23.54 14.08 23.45 13.87 23.37 13.61C23.29 13.35 23.25 13.07 23.25 12.78Q23.25 11.98 23.6 11.63Q23.7 11.53 23.82 11.46Q24.13 11.28 24.55 11.28L33.55 11.28Q33.7 11.5 33.82 11.9Q33.94 12.29 33.94 12.72C33.94 13.26 33.82 13.64 33.57 13.88C33.34 14.11 33.03 14.23 32.64 14.23L30.35 14.23L30.35 23.76C30.2 23.8 29.96 23.85 29.63 23.89C29.31 23.93 28.99 23.95 28.68 23.95C28.36 23.95 28.08 23.92 27.83 23.87C27.6 23.83 27.4 23.74 27.23 23.62C27.07 23.5 26.94 23.32 26.86 23.1Q26.74 22.77 26.74 22.24L26.74 14.23L23.64 14.23ZM81.49 20.85C81.49 21.9 81.09 22.72 80.31 23.31Q79.13 24.2 76.84 24.2C76.26 24.2 75.73 24.16 75.23 24.07C74.73 23.99 74.31 23.87 73.95 23.7C73.6 23.52 73.33 23.3 73.12 23.04C72.93 22.78 72.83 22.47 72.83 22.11C72.83 21.78 72.9 21.51 73.04 21.29C73.18 21.05 73.34 20.86 73.54 20.71C73.93 20.93 74.39 21.13 74.9 21.31C75.42 21.47 76.02 21.55 76.7 21.55C77.12 21.55 77.45 21.49 77.67 21.37C77.9 21.25 78.02 21.08 78.02 20.87C78.02 20.68 77.93 20.53 77.77 20.42C77.6 20.31 77.33 20.22 76.94 20.15L76.32 20.03C75.13 19.79 74.23 19.43 73.64 18.93Q73.44 18.76 73.29 18.55Q72.77 17.85 72.77 16.77C72.77 16.26 72.88 15.8 73.1 15.38C73.32 14.97 73.63 14.63 74.03 14.35C74.43 14.08 74.91 13.86 75.46 13.71C76.02 13.56 76.64 13.48 77.32 13.48C77.82 13.48 78.3 13.53 78.74 13.61C79.19 13.68 79.59 13.79 79.92 13.94C80.25 14.09 80.51 14.29 80.7 14.54Q80.79 14.65 80.86 14.77Q80.99 15.04 80.99 15.38C80.99 15.7 80.93 15.98 80.81 16.21C80.7 16.43 80.55 16.62 80.37 16.77C80.26 16.7 80.1 16.63 79.88 16.56C79.66 16.48 79.41 16.41 79.15 16.35C78.89 16.29 78.62 16.23 78.35 16.19C78.09 16.15 77.85 16.13 77.62 16.13C77.17 16.13 76.82 16.18 76.57 16.29C76.32 16.39 76.2 16.55 76.2 16.77C76.2 16.92 76.27 17.04 76.41 17.14C76.54 17.23 76.81 17.32 77.19 17.41L77.83 17.55C79.15 17.85 80.09 18.27 80.64 18.81Q80.95 19.1 81.15 19.45Q81.49 20.05 81.49 20.85ZM53.52 13.5C54.35 13.5 55.11 13.62 55.82 13.84C56.53 14.04 57.14 14.37 57.65 14.81C58.16 15.25 58.56 15.8 58.85 16.48C59.14 17.14 59.28 17.93 59.28 18.85C59.28 19.73 59.16 20.5 58.91 21.16C58.67 21.82 58.31 22.38 57.86 22.83C57.41 23.27 56.85 23.61 56.21 23.83C55.57 24.04 54.87 24.16 54.08 24.16C53.49 24.16 52.94 24.07 52.43 23.89L52.43 27.31C52.29 27.35 52.07 27.4 51.77 27.44C51.46 27.49 51.15 27.52 50.84 27.52C50.53 27.52 50.26 27.5 50.01 27.46C49.78 27.42 49.58 27.33 49.41 27.21C49.25 27.09 49.12 26.91 49.04 26.69C48.96 26.49 48.92 26.21 48.92 25.87L48.92 15.96C48.92 15.59 48.99 15.29 49.14 15.05C49.31 14.82 49.53 14.61 49.81 14.41C50.23 14.14 50.76 13.92 51.4 13.75Q52.35 13.5 53.52 13.5ZM38.11 23.83C37.97 23.87 37.75 23.91 37.45 23.95C37.16 23.99 36.85 24.01 36.54 24.01C36.24 24.01 35.96 23.99 35.71 23.95C35.48 23.91 35.28 23.83 35.11 23.7Q35.09 23.68 35.06 23.66Q34.85 23.48 34.72 23.21Q34.6 22.88 34.6 22.36L34.6 16.17C34.6 15.85 34.65 15.58 34.76 15.36C34.89 15.13 35.06 14.92 35.28 14.74Q35.61 14.48 36.08 14.27C36.41 14.12 36.77 13.99 37.14 13.88C37.51 13.77 37.89 13.68 38.29 13.63C38.69 13.56 39.09 13.53 39.49 13.53C40.15 13.53 40.68 13.66 41.06 13.92Q41.21 14.01 41.32 14.14Q41.64 14.51 41.64 15.16C41.64 15.35 41.61 15.54 41.56 15.73C41.5 15.91 41.43 16.08 41.35 16.23C41.06 16.23 40.77 16.24 40.46 16.27C40.16 16.3 39.86 16.34 39.57 16.39C39.29 16.45 39.01 16.51 38.75 16.58C38.5 16.64 38.29 16.7 38.11 16.79L38.11 23.83ZM46.68 23.83C46.53 23.85 46.3 23.89 46 23.93C45.71 23.98 45.41 24.01 45.11 24.01C44.81 24.01 44.53 23.99 44.29 23.95C44.05 23.91 43.85 23.83 43.69 23.7C43.52 23.58 43.39 23.41 43.29 23.21C43.21 22.99 43.17 22.7 43.17 22.36L43.17 13.96C43.32 13.93 43.54 13.9 43.83 13.86C44.13 13.8 44.44 13.77 44.74 13.77Q45.19 13.77 45.55 13.84C45.79 13.88 46 13.96 46.17 14.08C46.33 14.21 46.45 14.38 46.54 14.6Q46.68 14.91 46.68 15.42L46.68 23.83ZM61 13.96C61.14 13.92 61.35 13.88 61.64 13.84C61.94 13.79 62.25 13.77 62.57 13.77C62.87 13.77 63.14 13.79 63.37 13.84C63.62 13.88 63.83 13.96 63.99 14.08Q64.02 14.1 64.04 14.12L64.04 14.12Q64.25 14.3 64.36 14.6Q64.51 14.91 64.51 15.42L64.51 19.86C64.51 20.43 64.65 20.83 64.92 21.08C65.2 21.31 65.6 21.43 66.12 21.43C66.44 21.43 66.69 21.4 66.88 21.35C67.09 21.29 67.25 21.24 67.36 21.18L67.36 13.96C67.5 13.92 67.71 13.88 68 13.84Q68.45 13.77 68.93 13.77C69.23 13.77 69.5 13.79 69.73 13.84C69.98 13.88 70.19 13.96 70.35 14.08Q70.38 14.1 70.41 14.12L70.41 14.12Q70.62 14.3 70.73 14.6C70.82 14.81 70.87 15.08 70.87 15.42L70.87 21.7C70.87 22.39 70.58 22.9 70 23.25C69.52 23.55 68.94 23.78 68.27 23.93C67.61 24.09 66.88 24.18 66.1 24.18C65.36 24.18 64.67 24.09 64.03 23.93C63.41 23.76 62.88 23.51 62.42 23.16C61.97 22.82 61.62 22.38 61.37 21.84Q61 21.02 61 19.86L61 13.96ZM53.56 21.39Q54.44 21.39 54.96 20.96Q55.69 20.34 55.69 18.85C55.69 17.97 55.51 17.32 55.15 16.89C54.81 16.46 54.31 16.25 53.65 16.25C53.38 16.25 53.15 16.29 52.94 16.35C52.74 16.41 52.56 16.48 52.41 16.56L52.41 21.1C52.57 21.18 52.75 21.25 52.94 21.31C53.14 21.36 53.34 21.39 53.56 21.39Z" fill="#0450C2" fill-opacity="1.000000" fill-rule="evenodd"/>
	<path id="tour" d="M103.59 22.96Q104.09 22.82 104.44 22.53L103.88 21.11Q103.82 21.15 103.76 21.19Q103.35 21.46 102.77 21.46Q102.26 21.46 101.97 21.21Q101.92 21.18 101.88 21.13Q101.58 20.8 101.58 20.18L101.58 16.12L103.87 16.12L103.87 14.51L101.58 14.51L101.58 12.56L99.58 12.56L99.58 14.51L98.17 14.51L98.17 16.12L99.58 16.12L99.58 20.23Q99.58 21.51 100.22 22.24Q100.28 22.31 100.35 22.37Q100.39 22.41 100.43 22.45Q101.19 23.11 102.52 23.11Q103.09 23.11 103.59 22.96ZM107.55 22.67Q108.5 23.11 109.64 23.11Q110.86 23.11 111.84 22.63Q111.92 22.59 112 22.55Q112.59 22.23 113.03 21.76Q113.37 21.42 113.62 20.99Q113.73 20.8 113.82 20.6Q114.2 19.75 114.2 18.72Q114.2 17.69 113.81 16.84Q113.72 16.65 113.62 16.47Q113.38 16.06 113.06 15.72Q112.6 15.24 112 14.92Q111.91 14.87 111.82 14.83Q110.85 14.35 109.64 14.35Q108.51 14.35 107.58 14.78Q107.44 14.85 107.31 14.92Q106.7 15.24 106.25 15.71Q105.93 16.05 105.68 16.47Q105.58 16.64 105.5 16.82Q105.1 17.68 105.1 18.72Q105.1 19.76 105.49 20.62Q105.58 20.81 105.68 20.99Q105.94 21.42 106.28 21.77Q106.72 22.23 107.31 22.55Q107.43 22.61 107.55 22.67ZM129.3 15.24Q129.09 15.44 128.92 15.7L128.92 14.45L127.02 14.45L127.02 23L129.02 23L129.02 18.85Q129.02 17.6 129.64 16.93Q129.66 16.91 129.68 16.89Q129.79 16.77 129.92 16.67Q130.54 16.21 131.5 16.21Q131.71 16.21 131.97 16.26L131.97 14.35Q130.2 14.35 129.3 15.24ZM124.39 23L124.39 14.45L122.4 14.45L122.4 18.77Q122.4 19.99 121.79 20.66Q121.78 20.67 121.76 20.68Q121.6 20.85 121.41 20.98Q120.86 21.35 120.06 21.35Q119.28 21.35 118.78 20.97Q118.67 20.88 118.58 20.78Q118.06 20.21 118.06 19.06L118.06 14.45L116.06 14.45L116.06 19.33Q116.06 21.1 116.94 22.05Q116.99 22.11 117.04 22.16Q117.17 22.28 117.31 22.39Q118.25 23.11 119.74 23.11Q120.45 23.11 121.08 22.88Q121.19 22.84 121.29 22.8Q121.79 22.58 122.17 22.24Q122.34 22.08 122.49 21.91L122.49 23L124.39 23ZM110.87 21.11Q110.33 21.39 109.64 21.39Q108.95 21.39 108.41 21.1Q108.09 20.93 107.83 20.66Q107.67 20.5 107.55 20.31Q107.12 19.66 107.12 18.72Q107.12 17.79 107.54 17.15Q107.67 16.95 107.83 16.79Q108.1 16.51 108.42 16.34Q108.96 16.05 109.64 16.05Q110.32 16.05 110.86 16.33Q111.19 16.5 111.47 16.79Q111.64 16.96 111.77 17.17Q112.19 17.81 112.19 18.72Q112.19 19.64 111.77 20.29Q111.64 20.49 111.47 20.66Q111.2 20.94 110.87 21.11Z" fill="#0450C2" fill-opacity="1.000000" fill-rule="evenodd"/>
</svg>
