<svg width="30" height="30" viewBox="0 0 30 30" fill="none" xmlns="http://www.w3.org/2000/svg">
<g clip-path="url(#clip0_5531_12221)">
<mask id="mask0_5531_12221" style="mask-type:luminance" maskUnits="userSpaceOnUse" x="0" y="0" width="30" height="30">
<path d="M29.0624 15C29.0624 18.7297 27.5808 22.3065 24.9435 24.9438C22.3063 27.581 18.7294 29.0626 14.9998 29.0626C11.2702 29.0626 7.69332 27.581 5.05608 24.9438C2.41884 22.3065 0.937256 18.7297 0.937256 15C0.937256 11.2704 2.41884 7.69356 5.05608 5.05632C7.69332 2.41909 11.2702 0.9375 14.9998 0.9375C18.7294 0.9375 22.3063 2.41909 24.9435 5.05632C27.5808 7.69356 29.0624 11.2704 29.0624 15Z" fill="white"/>
</mask>
<g mask="url(#mask0_5531_12221)">
<path d="M29.0627 0.9375V10.3125H0.937744V0.9375H29.0627Z" fill="#479951"/>
<path d="M29.0625 10.3125V19.6875H0.9375V10.3125H29.0625Z" fill="white"/>
<path d="M29.0625 19.6875V29.0625H0.9375V19.6875H29.0625Z" fill="#222222"/>
<path d="M10.3127 29.0625H0.937744V0.9375H10.3127V29.0625Z" fill="#E74C3C"/>
</g>
</g>
<defs>
<clipPath id="clip0_5531_12221">
<rect width="30" height="30" fill="white"/>
</clipPath>
</defs>
</svg>
