<svg width="20" height="19" viewBox="0 0 20 19" fill="none" xmlns="http://www.w3.org/2000/svg">
<path d="M12.4368 9.19279L10.0747 1.44431C9.99681 1.18905 9.9578 1.06136 9.88494 0.956882C9.82037 0.864397 9.73672 0.785434 9.63937 0.724983C9.52952 0.656711 9.39586 0.621433 9.12891 0.550973L8.2889 0.329254C8.13746 0.289282 8.06165 0.269272 8.00363 0.286464C7.95294 0.301533 7.9104 0.334747 7.88481 0.379307C7.85556 0.430211 7.86076 0.50523 7.87134 0.655319L8.39485 8.12592L3.03912 6.7123L2.56582 5.1594C2.48796 4.90414 2.44895 4.77647 2.37609 4.672C2.31152 4.57951 2.22787 4.50055 2.13052 4.4401C2.02049 4.37178 1.88701 4.33655 1.62006 4.26609L1.26525 4.17243C1.11975 4.13403 1.047 4.11483 0.990251 4.13092C0.954382 4.14103 0.922412 4.16018 0.897469 4.18604C0.887795 4.19613 0.87919 4.20723 0.871882 4.21923C0.841753 4.26771 0.843433 4.33939 0.847137 4.48221L0.847072 4.48457L0.834239 7.39921L0.834404 7.40073C0.831221 8.05657 0.829943 8.38475 0.947887 8.66041C1.05207 8.90384 1.22122 9.11727 1.43832 9.27895C1.68405 9.46211 2.01532 9.54955 2.67748 9.72432L17.2058 13.559C18.043 13.78 18.8982 13.3101 19.116 12.5095C19.3338 11.7088 18.8316 10.8807 17.9945 10.6597L12.4368 9.19279Z" fill="#76787A"/>
<path d="M19.1668 16.9469H0.833496V18.6136H19.1668V16.9469Z" fill="#76787A"/>
</svg>
