<svg width="56" height="56" viewBox="0 0 56 56" fill="none" xmlns="http://www.w3.org/2000/svg">
<path d="M0 28C0 12.536 12.536 0 28 0C43.464 0 56 12.536 56 28C56 43.464 43.464 56 28 56C12.536 56 0 43.464 0 28Z" fill="#235DFF"/>
<path d="M33.646 20.7617C34.089 20.7617 34.4551 21.0909 34.513 21.518L34.521 21.6367V37.5241C34.521 38.0074 34.1292 38.3991 33.646 38.3991C33.203 38.3991 32.8369 38.0699 32.779 37.6429L32.771 37.5241V21.6367C32.771 21.1535 33.1627 20.7617 33.646 20.7617Z" fill="white"/>
<path d="M37.7833 32.1288C38.1243 31.7863 38.6783 31.785 39.0208 32.1259C39.3321 32.4359 39.3615 32.9219 39.1081 33.265L39.0236 33.3634L34.2662 38.1428C33.9553 38.4552 33.4673 38.4836 33.1242 38.228L33.0259 38.1428L28.2685 33.3634C27.9276 33.0209 27.9289 32.4669 28.2714 32.1259C28.5827 31.816 29.0689 31.7889 29.4109 32.0439L29.5088 32.1288L33.6456 36.2845L37.7833 32.1288Z" fill="white"/>
<path d="M22.063 17.5957C22.506 17.5957 22.8721 17.9249 22.93 18.352L22.938 18.4707V34.3581C22.938 34.8414 22.5462 35.2331 22.063 35.2331C21.62 35.2331 21.2539 34.9039 21.196 34.4768L21.188 34.3581V18.4707C21.188 17.9875 21.5797 17.5957 22.063 17.5957Z" fill="white"/>
<path d="M21.4429 17.8534C21.7539 17.541 22.2418 17.5126 22.5849 17.7682L22.6832 17.8534L27.4406 22.6329C27.7815 22.9754 27.7803 23.5294 27.4378 23.8703C27.1264 24.1802 26.6402 24.2073 26.2983 23.9524L26.2003 23.8674L22.0628 19.7105L17.9258 23.8674C17.6159 24.1788 17.1298 24.2082 16.7867 23.9548L16.6884 23.8703C16.377 23.5604 16.3477 23.0743 16.601 22.7312L16.6855 22.6329L21.4429 17.8534Z" fill="white"/>
</svg>
