<svg width="17.000000" height="17.000000" viewBox="0 0 17 17" fill="none" xmlns="http://www.w3.org/2000/svg" xmlns:xlink="http://www.w3.org/1999/xlink">
	<desc>
			Created with Pixso.
	</desc>
	<defs/>
	<mask id="mask831_25460" mask-type="alpha" maskUnits="userSpaceOnUse" x="-0.333984" y="-0.333008" width="16.230713" height="16.230469">
		<path id="Clip 2" d="M-0.34 -0.34L15.89 -0.34L15.89 15.89L-0.34 15.89L-0.34 -0.34Z" fill="#000000" fill-opacity="1.000000" fill-rule="evenodd"/>
	</mask>
	<g mask="url(#mask831_25460)">
		<path id="Fill 1" d="M-0.333984 7.78125C-0.333984 12.2559 3.30688 15.8965 7.78174 15.8965C12.2568 15.8965 15.8967 12.2559 15.8967 7.78125C15.8967 3.30566 12.2568 -0.333984 7.78174 -0.333984C3.30688 -0.333984 -0.333984 3.30566 -0.333984 7.78125ZM0.916016 7.78125C0.916016 3.99512 3.99609 0.916016 7.78174 0.916016C11.5669 0.916016 14.6467 3.99512 14.6467 7.78125C14.6467 11.5664 11.5669 14.6465 7.78174 14.6465C3.99609 14.6465 0.916016 11.5664 0.916016 7.78125Z" clip-rule="evenodd" fill="#212121" fill-opacity="1.000000" fill-rule="evenodd"/>
	</g>
	<mask id="mask831_25465" mask-type="alpha" maskUnits="userSpaceOnUse" x="12.367188" y="12.755859" width="4.186768" height="4.178711">
		<path id="Clip 5" d="M12.36 12.75L16.55 12.75L16.55 16.93L12.36 16.93L12.36 12.75Z" fill="#000000" fill-opacity="1.000000" fill-rule="evenodd"/>
	</mask>
	<g mask="url(#mask831_25465)">
		<path id="Fill 4" d="M15.92 16.93C15.76 16.93 15.6 16.87 15.48 16.75L12.55 13.82C12.3 13.58 12.3 13.18 12.54 12.93C12.79 12.69 13.18 12.69 13.43 12.93L16.37 15.86C16.61 16.11 16.61 16.5 16.37 16.75C16.25 16.87 16.08 16.93 15.92 16.93Z" fill="#212121" fill-opacity="1.000000" fill-rule="evenodd"/>
	</g>
</svg>
