<svg width="15" height="14" viewBox="0 0 15 14" fill="none" xmlns="http://www.w3.org/2000/svg">
<path d="M8.58107 2.04656L9.68107 4.0999C9.83107 4.38573 10.2311 4.6599 10.5686 4.7124L12.5623 5.02156C13.8373 5.2199 14.1373 6.08323 13.2186 6.9349L11.6686 8.38156C11.4061 8.62656 11.2623 9.09906 11.3436 9.4374L11.7873 11.2282C12.1373 12.6457 11.3311 13.1941 9.98732 12.4532L8.11857 11.4207C7.78107 11.2341 7.22482 11.2341 6.88107 11.4207L5.01232 12.4532C3.67482 13.1941 2.86232 12.6399 3.21232 11.2282L3.65607 9.4374C3.73732 9.09906 3.59357 8.62656 3.33107 8.38156L1.78107 6.9349C0.868571 6.08323 1.16232 5.2199 2.43732 5.02156L4.43107 4.7124C4.76232 4.6599 5.16232 4.38573 5.31232 4.0999L6.41232 2.04656C7.01232 0.932396 7.98732 0.932396 8.58107 2.04656Z" fill="#DADADA"/>
</svg>
