<svg width="149" height="16" viewBox="0 0 149 16" fill="none" xmlns="http://www.w3.org/2000/svg">
<g clip-path="url(#clip0_3970_1706)">
<path d="M9.50146 4.58052L2.46468 2.82132C2.23287 2.76337 2.11694 2.73439 2.00447 2.74161C1.90495 2.748 1.80782 2.7749 1.71918 2.82063C1.61902 2.8723 1.53454 2.95679 1.36557 3.12576L0.834056 3.65727C0.738217 3.75311 0.690296 3.80103 0.678904 3.85255C0.668931 3.89765 0.676591 3.94485 0.700313 3.98448C0.727412 4.02975 0.788026 4.06006 0.909251 4.12067L6.94395 7.13802L3.55526 10.5267L2.14499 10.1741C1.91317 10.1162 1.79725 10.0872 1.68479 10.0944C1.58526 10.1008 1.48813 10.1277 1.39949 10.1735C1.29934 10.2251 1.21485 10.3096 1.04589 10.4786L0.821433 10.703C0.729351 10.7951 0.68331 10.8412 0.671538 10.8913C0.661227 10.9352 0.667694 10.9814 0.689671 11.0207C0.714759 11.0657 0.771674 11.0973 0.885505 11.1606L3.42738 12.5727L4.83953 15.1146C4.90277 15.2284 4.93439 15.2853 4.97935 15.3104C5.01874 15.3324 5.06491 15.3389 5.10882 15.3286C5.15894 15.3168 5.20499 15.2708 5.29707 15.1787L5.52152 14.9542C5.69049 14.7853 5.77497 14.7008 5.82664 14.6006C5.87237 14.512 5.89927 14.4148 5.90566 14.3153C5.91289 14.2028 5.88391 14.0869 5.82595 13.8551L5.47339 12.4448L8.86208 9.05615L11.8794 15.0908C11.94 15.2121 11.9704 15.2727 12.0156 15.2998C12.0553 15.3235 12.1025 15.3312 12.1476 15.3212C12.1991 15.3098 12.247 15.2619 12.3428 15.166L12.8743 14.6345C13.0433 14.4656 13.1278 14.3811 13.1795 14.2809C13.2252 14.1923 13.2521 14.0952 13.2585 13.9956C13.2657 13.8832 13.2367 13.7673 13.1788 13.5354L11.4196 6.49864L14.9362 2.98207C15.4658 2.4524 15.4658 1.59362 14.9362 1.06394C14.4065 0.534268 13.5477 0.534268 13.018 1.06394L9.50146 4.58052Z" fill="#76787A"/>
</g>
<path d="M24.6667 2C25.0349 2 25.3333 2.29848 25.3333 2.66667V10H30V6H34.6667C36.8758 6 38.6667 7.79086 38.6667 10V6.66667C38.6667 6.29848 38.9651 6 39.3333 6C39.7015 6 40 6.29848 40 6.66667V14.6667C40 15.0349 39.7015 15.3333 39.3333 15.3333C38.9651 15.3333 38.6667 15.0349 38.6667 14.6667V12.6667H25.3333V14.6667C25.3333 15.0349 25.0349 15.3333 24.6667 15.3333C24.2985 15.3333 24 15.0349 24 14.6667V2.66667C24 2.29848 24.2985 2 24.6667 2Z" fill="#76787A"/>
<path d="M27.6667 9.33333C28.5871 9.33333 29.3333 8.58714 29.3333 7.66667C29.3333 6.74619 28.5871 6 27.6667 6C26.7462 6 26 6.74619 26 7.66667C26 8.58714 26.7462 9.33333 27.6667 9.33333Z" fill="#76787A"/>
<path fill-rule="evenodd" clip-rule="evenodd" d="M53.798 2.14127L53.6667 2.66665H52.3259C52.0866 2.66665 51.967 2.66665 51.8613 2.70308C51.7679 2.7353 51.6828 2.78789 51.6122 2.85703C51.5324 2.93522 51.4789 3.04224 51.3719 3.25628L50.2948 5.41034C50.1878 5.62438 50.1343 5.7314 50.0545 5.80959C49.9839 5.87874 49.8988 5.93132 49.8054 5.96354C49.6997 5.99998 49.5801 5.99998 49.3408 5.99998H49.3259C49.0866 5.99998 48.967 5.99998 48.8613 6.03642C48.7679 6.06864 48.6828 6.12122 48.6122 6.19037C48.5324 6.26856 48.4789 6.37558 48.3719 6.58962L48.3438 6.64567C48.2202 6.89294 48.1584 7.01658 48.1472 7.14247C48.1373 7.25363 48.1554 7.36551 48.2 7.46784C48.2504 7.58371 48.3482 7.68145 48.5436 7.87694L48.6667 7.99998V13.6C48.6667 13.9733 48.6667 14.16 48.7394 14.3026C48.8033 14.4281 48.9053 14.5301 49.0307 14.594C49.1733 14.6666 49.36 14.6666 49.7334 14.6666H50.9334C51.3067 14.6666 51.4934 14.6666 51.636 14.594C51.7615 14.5301 51.8634 14.4281 51.9274 14.3026C52 14.16 52 13.9733 52 13.6V13.3333H60V13.6C60 13.9733 60 14.16 60.0727 14.3026C60.1366 14.4281 60.2386 14.5301 60.364 14.594C60.5066 14.6666 60.6933 14.6666 61.0667 14.6666H62.2667C62.6401 14.6666 62.8267 14.6666 62.9694 14.594C63.0948 14.5301 63.1968 14.4281 63.2607 14.3026C63.3334 14.16 63.3334 13.9733 63.3334 13.6V7.99998L63.4564 7.87694C63.6519 7.68146 63.7496 7.58371 63.8001 7.46784C63.8446 7.36551 63.8628 7.25363 63.8529 7.14247C63.8417 7.01658 63.7798 6.89294 63.6562 6.64567L63.6282 6.58962C63.5212 6.37558 63.4676 6.26856 63.3878 6.19037C63.3172 6.12122 63.2321 6.06864 63.1387 6.03642C63.0331 5.99998 62.9134 5.99998 62.6741 5.99998H62.6593C62.42 5.99998 62.3003 5.99998 62.1947 5.96354C62.1012 5.93132 62.0162 5.87874 61.9456 5.80959C61.8657 5.7314 61.8122 5.62438 61.7052 5.41034L60.6282 3.25629C60.5212 3.04224 60.4676 2.93522 60.3878 2.85703C60.3172 2.78789 60.2321 2.7353 60.1387 2.70308C60.0331 2.66665 59.9134 2.66665 59.6741 2.66665H58.3333L58.202 2.14127C58.1298 1.85239 58.0937 1.70794 58.0131 1.60039C57.9421 1.5055 57.847 1.43127 57.7377 1.38536C57.6138 1.33331 57.465 1.33331 57.1672 1.33331H54.8328C54.535 1.33331 54.3862 1.33331 54.2623 1.38536C54.153 1.43127 54.0579 1.5055 53.9869 1.60039C53.9063 1.70794 53.8702 1.85239 53.798 2.14127ZM52.6667 10.6666C52.6667 11.1778 51.8444 12 51.3333 12C50.8222 12 50 11.1778 50 10.6666C50 10.1555 50.8222 9.33331 51.3333 9.33331C51.8444 9.33331 52.6667 10.1555 52.6667 10.6666ZM62 10.6666C62 11.1778 61.1778 12 60.6667 12C60.1556 12 59.3333 11.1778 59.3333 10.6666C59.3333 10.1555 60.1556 9.33331 60.6667 9.33331C61.1778 9.33331 62 10.1555 62 10.6666ZM58.9556 3.66665H53.0444C52.7874 3.66665 52.6589 3.66665 52.5474 3.70771C52.4489 3.74399 52.3603 3.80305 52.2889 3.88006C52.2081 3.96721 52.1587 4.08582 52.0598 4.32306L50.6667 7.66665C50.6667 7.66665 53.3333 7.33331 56 7.33331C58.6667 7.33331 61.3333 7.66665 61.3333 7.66665L59.9402 4.32306C59.8413 4.08582 59.7919 3.96721 59.7111 3.88006C59.6397 3.80305 59.5511 3.74399 59.4526 3.70771C59.3411 3.66665 59.2126 3.66665 58.9556 3.66665Z" fill="#76787A"/>
<path d="M73.9999 0.666687C73.6317 0.666687 73.3333 0.965164 73.3333 1.33335V5.33335C73.3333 7.31535 74.7748 8.96066 76.6666 9.27805V14.6667C76.6666 15.0349 76.9651 15.3334 77.3333 15.3334C77.7014 15.3334 77.9999 15.0349 77.9999 14.6667V9.27805C79.8917 8.96066 81.3333 7.31535 81.3333 5.33335V1.33335C81.3333 0.965164 81.0348 0.666687 80.6666 0.666687C80.2984 0.666687 79.9999 0.965164 79.9999 1.33335V5.66669C79.9999 6.21897 79.5522 6.66669 78.9999 6.66669C78.4476 6.66669 77.9999 6.21897 77.9999 5.66669V1.33335C77.9999 0.965164 77.7014 0.666687 77.3333 0.666687C76.9651 0.666687 76.6666 0.965164 76.6666 1.33335V5.66669C76.6666 6.21897 76.2189 6.66669 75.6666 6.66669C75.1143 6.66669 74.6666 6.21897 74.6666 5.66669V1.33335C74.6666 0.965164 74.3681 0.666687 73.9999 0.666687Z" fill="#76787A"/>
<path d="M86.6666 0.666687C84.4574 0.666687 82.6666 2.45755 82.6666 4.66669V9.33335H85.3333V14.6667C85.3333 15.0349 85.6317 15.3334 85.9999 15.3334C86.3681 15.3334 86.6666 15.0349 86.6666 14.6667V0.666687Z" fill="#76787A"/>
<path d="M96.1898 6.43974C95.9203 6.14774 95.9372 5.69075 96.2444 5.43866C98.3553 3.70641 101.056 2.66669 104 2.66669C106.944 2.66669 109.645 3.70641 111.756 5.43866C112.063 5.69075 112.08 6.14775 111.81 6.43975L110.834 7.49736C110.564 7.78946 110.11 7.8052 109.799 7.55861C108.205 6.2979 106.19 5.54529 104 5.54529C101.81 5.54529 99.7954 6.2979 98.2013 7.55861C97.8895 7.80519 97.4357 7.78946 97.1661 7.49736L96.1898 6.43974Z" fill="#76787A"/>
<path d="M108.881 9.61257C109.151 9.32057 109.135 8.86244 108.82 8.62029C107.485 7.59445 105.814 6.98459 104 6.98459C102.186 6.98459 100.515 7.59445 99.1805 8.62029C98.8654 8.86244 98.8491 9.32057 99.1186 9.61257L100.095 10.6702C100.364 10.9623 100.817 10.9755 101.145 10.7499C101.956 10.1906 102.94 9.86319 104 9.86319C105.06 9.86319 106.044 10.1906 106.855 10.7499C107.183 10.9755 107.636 10.9623 107.905 10.6702L108.881 9.61257Z" fill="#76787A"/>
<path d="M105.867 11.8242C106.207 12.0307 106.222 12.4934 105.953 12.7854L104.529 14.3279C104.244 14.6366 103.756 14.6366 103.471 14.3279L102.047 12.7854C101.778 12.4934 101.793 12.0307 102.133 11.8242C102.677 11.4932 103.316 11.3025 104 11.3025C104.684 11.3025 105.323 11.4932 105.867 11.8242Z" fill="#76787A"/>
<defs>
<clipPath id="clip0_3970_1706">
<rect width="16" height="16" fill="white"/>
</clipPath>
</defs>
</svg>
