<svg width="30" height="30" viewBox="0 0 30 30" fill="none" xmlns="http://www.w3.org/2000/svg">
<g clip-path="url(#clip0_5531_12215)">
<path d="M15 0.9375C8.85937 0.9375 3.65625 4.875 1.73438 10.3125H28.2656C26.3437 4.875 21.1406 0.9375 15 0.9375Z" fill="#428BC1"/>
<path d="M15 29.0625C21.1406 29.0625 26.3437 25.1719 28.2656 19.6875H1.73438C3.65625 25.1719 8.85937 29.0625 15 29.0625Z" fill="#83BF4F"/>
<path d="M1.73438 10.3125C1.21875 11.7656 0.9375 13.3594 0.9375 15C0.9375 16.6406 1.21875 18.2344 1.73438 19.6875H28.2656C28.7812 18.2344 29.0625 16.6406 29.0625 15C29.0625 13.3594 28.7812 11.7656 28.2656 10.3125H1.73438Z" fill="#ED4C5C"/>
<path d="M14.8125 18.8438C12.7031 18.8438 10.9688 17.1094 10.9688 15C10.9688 12.8906 12.7031 11.1562 14.8125 11.1562C15.3281 11.1562 15.7969 11.25 16.2187 11.4375C15.4687 10.875 14.5312 10.5 13.5 10.5C11.0156 10.5 9.04688 12.5156 9.04688 15C9.04688 17.4844 11.0625 19.5 13.5 19.5C14.5312 19.5 15.4687 19.1719 16.2187 18.5625C15.7969 18.75 15.3281 18.8438 14.8125 18.8438ZM18.9375 15.6563L17.9063 16.3594L18.5625 15.2812L17.3438 15L18.5625 14.7187L17.8594 13.6875L18.9375 14.3438L19.2188 13.125L19.5 14.3438L20.5312 13.6406L19.875 14.7187L21.0938 15L19.875 15.2812L20.5781 16.3125L19.5 15.6563L19.2188 16.875L18.9375 15.6563Z" fill="white"/>
</g>
<defs>
<clipPath id="clip0_5531_12215">
<rect width="30" height="30" fill="white"/>
</clipPath>
</defs>
</svg>
