<svg width="129" height="37" viewBox="0 0 129 37" fill="none" xmlns="http://www.w3.org/2000/svg">
<path d="M8.80987 0.150588C8.31534 0.247637 7.44341 0.538785 6.85779 0.793539C4.65844 1.78829 3.38308 3.3896 3.00568 5.67026C2.68033 7.68403 3.6824 9.43091 5.71257 10.3771C6.93587 10.9473 7.61259 11.0686 9.46056 11.0686C10.8921 11.0686 11.2825 11.0201 12.0243 10.7896C13.1435 10.4257 14.3017 9.72206 14.8873 9.05485C15.3558 8.50895 15.9024 7.61124 15.9024 7.36862C15.9024 7.2837 15.4209 7.24731 14.4449 7.27157L13.0003 7.30796L12.714 7.79321C12.3627 8.37551 11.5168 9.00632 10.853 9.18829C10.2154 9.346 8.70576 9.346 8.08109 9.17616C6.59751 8.75157 5.81668 7.33223 6.12901 5.57321C6.4023 4.02042 7.2482 2.81944 8.54959 2.17649C9.13521 1.88534 9.33042 1.84895 10.5667 1.84895C11.8161 1.84895 11.9853 1.87321 12.5448 2.17649C13.2216 2.55256 13.664 3.13485 13.7812 3.78993L13.8592 4.22665L15.3038 4.19026L16.7483 4.15387L16.7093 3.66862C16.6963 3.40174 16.5011 2.8437 16.2798 2.41911C15.7853 1.47288 14.9004 0.80567 13.5339 0.368949C12.3366 -0.0192479 10.2024 -0.116297 8.80987 0.150588ZM19.6114 0.356818C19.5854 0.441736 19.26 1.58206 18.8956 2.8801C18.349 4.78469 16.7353 10.0617 16.4881 10.7411C16.436 10.8624 17.4381 10.8867 21.3943 10.8624L26.3656 10.826L26.5998 10.0981C26.73 9.6978 26.8341 9.33387 26.8341 9.27321C26.8341 9.22469 25.3115 9.18829 23.4505 9.18829C21.5895 9.18829 20.0669 9.1519 20.0669 9.10337C20.0669 9.06698 20.2491 8.37551 20.4703 7.58698L20.8737 6.15551L23.958 6.13124L27.0293 6.09485L27.2505 5.48829C27.6409 4.37223 27.8752 4.45715 24.4916 4.45715C21.8758 4.45715 21.4984 4.43288 21.4984 4.26305C21.4984 4.166 21.6546 3.59583 21.8498 2.98928L22.2011 1.9096H28.9033L29.0985 1.25452C29.4629 0.102064 29.9314 0.211244 24.4916 0.211244C20.7436 0.211244 19.6504 0.247637 19.6114 0.356818ZM31.467 0.417473C31.428 0.538785 31.0636 1.77616 30.6732 3.18337C30.2697 4.57846 29.593 6.82272 29.1636 8.16928C28.7471 9.5037 28.3957 10.6683 28.3957 10.7532C28.3957 10.8503 28.7731 10.8867 29.7882 10.8624L31.1677 10.826L31.7143 9.00632C32.0136 7.99944 32.4821 6.32534 32.7684 5.26993C33.0417 4.22665 33.302 3.36534 33.341 3.36534C33.3801 3.36534 34.1609 5.0637 35.0849 7.126L36.7637 10.8988L38.5856 10.8624L40.4075 10.826L41.2144 8.03583C41.9171 5.57321 43.3617 0.902719 43.5699 0.393211C43.635 0.235506 43.4528 0.211244 42.2165 0.211244H40.7719L40.5767 0.842064C40.1473 2.22501 39.0931 5.90075 38.8719 6.76206C38.7418 7.25944 38.6116 7.70829 38.5596 7.75682C38.5205 7.80534 37.7007 6.14337 36.7637 4.05682L35.0458 0.2719L33.289 0.235506C31.7013 0.211244 31.5321 0.223375 31.467 0.417473ZM44.8583 0.842064C44.5069 1.97026 44.3898 1.9096 46.6282 1.9096C48.4241 1.9096 48.5803 1.92174 48.5152 2.11583C48.4761 2.23715 48.2419 3.09846 47.9946 4.03256C47.7344 4.96665 47.1617 6.87124 46.6932 8.27846L45.8604 10.826L47.37 10.8624C48.1898 10.8745 48.9186 10.8503 48.9707 10.8017C49.0227 10.7532 49.4262 9.41878 49.8556 7.85387C50.2851 6.28895 50.8707 4.3237 51.157 3.48665L51.6645 1.97026L53.6947 1.93387L55.7119 1.89747L55.855 1.44862C55.9201 1.19387 56.0242 0.817801 56.0632 0.599441L56.1543 0.211244H45.0665L44.8583 0.842064ZM57.6119 0.356818C57.5858 0.441736 57.1824 1.84895 56.7139 3.48665C56.2454 5.12436 55.5427 7.44141 55.1523 8.64239L54.4625 10.826L55.9591 10.8624C56.779 10.8745 57.4687 10.8745 57.4948 10.8503C57.5208 10.8381 57.7811 9.94042 58.0934 8.88501L58.653 6.94403L59.6551 6.90764L60.6571 6.87124L61.2297 7.93878C61.5421 8.52108 61.9976 9.43092 62.2318 9.94042L62.6743 10.8867H64.4051C65.3551 10.8867 66.136 10.8624 66.136 10.826C66.136 10.7896 65.6675 9.87977 65.0818 8.81223C64.5092 7.73255 64.0798 6.81059 64.1448 6.76206C64.1969 6.71354 64.5483 6.5801 64.9127 6.47092C66.8127 5.90075 67.8278 4.68764 67.8278 2.97715C67.8278 2.12796 67.6195 1.71551 66.9298 1.15747C65.9538 0.38108 65.3551 0.284031 61.2818 0.235506C58.3797 0.199113 57.6639 0.223375 57.6119 0.356818ZM64.1188 2.07944C64.6654 2.2978 64.8346 2.58895 64.8346 3.31682C64.8346 4.05682 64.4572 4.61485 63.7414 4.93026C63.2599 5.14862 62.9476 5.18501 61.2167 5.18501C60.0064 5.18501 59.2386 5.13649 59.2386 5.0637C59.2386 5.00305 59.4598 4.26305 59.7201 3.426L60.1886 1.9096H61.9325C63.1428 1.9096 63.8065 1.95813 64.1188 2.07944ZM70.5737 0.660096C69.8709 3.18337 69.2072 5.42764 68.9339 6.26469C67.9449 9.32173 69.2853 10.9473 72.9162 11.105C76.2217 11.2385 78.369 10.2801 79.4101 8.18141C79.7094 7.58698 82.0129 0.599441 82.0129 0.296162C82.0129 0.247637 81.3752 0.211244 80.5814 0.211244H79.1628L79.0067 0.720752C78.0306 4.166 77.0286 7.45354 76.8724 7.73255C76.534 8.33911 75.7662 8.93354 75.0765 9.12764C73.8662 9.46731 72.5518 9.3096 72.0052 8.77583C71.3936 8.16928 71.4586 7.75682 72.9682 3.06206C73.4367 1.59419 73.8141 0.356818 73.8141 0.308293C73.8141 0.259768 73.1114 0.211244 72.2525 0.211244H70.7038L70.5737 0.660096ZM84.043 0.417473C84.004 0.538785 83.6396 1.77616 83.2492 3.18337C82.8458 4.57846 82.169 6.82272 81.7396 8.16928C81.3231 9.5037 80.9718 10.6683 80.9718 10.7532C80.9718 10.8503 81.3362 10.8867 82.2992 10.8624L83.6266 10.826L83.991 9.67354C84.1862 9.04272 84.6937 7.29583 85.0972 5.79157C85.5136 4.28731 85.865 3.17124 85.891 3.30469C85.917 3.43813 86.2424 5.18501 86.6068 7.18665L87.2835 10.826H89.7561L92.4891 7.22305C93.9856 5.24567 95.235 3.64436 95.261 3.66862C95.287 3.69288 95.0137 4.60272 94.6624 5.69452C93.9856 7.73255 93.0747 10.7047 93.0747 10.826C93.0747 10.8624 93.7514 10.8745 94.5843 10.8624L96.1069 10.826L96.9138 7.97518C97.3693 6.41026 98.059 4.10534 98.4624 2.85583C98.8658 1.60633 99.1912 0.502391 99.1912 0.393211C99.1912 0.235506 98.8919 0.211244 97.1871 0.211244H95.1829L92.3069 4.03256C90.7192 6.13124 89.3787 7.866 89.3267 7.90239C89.2746 7.92665 88.9753 6.53157 88.663 4.78469C88.3506 3.0378 88.0383 1.29092 87.9732 0.902719L87.8431 0.211244H85.9821C84.3163 0.211244 84.1081 0.235506 84.043 0.417473ZM101.781 5.4519C99.5295 8.32698 97.6686 10.7411 97.6425 10.8017C97.6295 10.8503 97.8508 10.8867 98.1631 10.8624L98.7227 10.826L100.024 9.10337L101.338 7.36862H104.371C106.023 7.36862 107.39 7.38075 107.403 7.39288C107.403 7.41715 107.533 8.19354 107.689 9.12764L107.976 10.826L108.47 10.8624C108.795 10.8867 108.952 10.8503 108.952 10.7411C108.952 10.5712 107.299 0.951244 107.195 0.478129C107.13 0.247637 107.039 0.211244 106.492 0.211244H105.854L101.781 5.4519ZM106.869 3.94764C107.104 5.37911 107.26 6.55583 107.221 6.59223C107.195 6.61649 105.997 6.62862 104.566 6.61649L101.963 6.5801L104.123 3.75354C105.789 1.56993 106.297 0.975506 106.375 1.14534C106.427 1.26665 106.648 2.52829 106.869 3.94764ZM113.832 0.356818C113.806 0.441736 113.48 1.54567 113.116 2.81944C112.556 4.76042 110.891 10.2316 110.708 10.7411C110.656 10.8624 110.787 10.8867 111.19 10.8624L111.724 10.826L112.166 9.3096C112.595 7.81747 114.157 2.63747 114.665 1.02403L114.925 0.211244H114.404C114.105 0.211244 113.858 0.2719 113.832 0.356818ZM116.838 2.41911C116.487 3.63223 115.771 6.00993 115.25 7.69616C114.717 9.38239 114.287 10.7775 114.287 10.8139C114.287 10.8624 114.509 10.8867 114.795 10.8867H115.289L115.992 8.54534L116.695 6.21616H120.326L120.573 6.60436C120.703 6.82272 121.25 7.85387 121.783 8.90928L122.746 10.826L123.267 10.8624C123.553 10.8867 123.787 10.8624 123.787 10.8139C123.787 10.7775 123.293 9.75846 122.681 8.55747C122.07 7.35649 121.575 6.33747 121.575 6.28895C121.575 6.24042 121.926 6.13124 122.356 6.05846C124.438 5.65813 125.726 4.57846 125.948 3.07419C126.117 1.99452 125.557 1.1696 124.282 0.623703C123.462 0.2719 123.449 0.2719 120.469 0.235506L117.476 0.186982L116.838 2.41911ZM123.722 1.18174C124.087 1.35157 124.503 1.66698 124.659 1.89747C125.232 2.69813 124.92 3.94764 123.97 4.67551C123.072 5.36698 122.577 5.46403 119.584 5.52469C116.994 5.57321 116.864 5.56108 116.929 5.34272C116.968 5.22141 117.28 4.25092 117.606 3.18337C117.931 2.11583 118.243 1.14534 118.283 1.0119C118.348 0.80567 118.504 0.793539 120.716 0.842064C122.915 0.878457 123.111 0.902719 123.722 1.18174Z" fill="black"/>
<path d="M29.8227 13.1794C30.4344 13.3008 45.7907 15.8726 63.9451 18.9053C82.1124 21.9381 96.9743 24.4371 96.9743 24.4735C96.9743 24.5099 86.0296 27.3122 72.6514 30.7211C59.2731 34.1178 48.3415 36.9201 48.3545 36.9322C48.4195 36.9929 64.5958 35.8647 74.0699 35.149C90.6235 33.8873 98.7312 33.0381 103.702 32.0434C110.834 30.624 114.257 28.8529 117.198 25.068L117.901 24.1703L117.484 23.964C116.456 23.4667 115.584 22.1201 115.584 21.0162C115.584 19.888 116.482 18.5414 117.575 18.0198C119.28 17.2191 121.518 17.8863 122.364 19.4634L122.703 20.0942C122.716 20.1185 123.223 19.9971 123.809 19.8273C124.408 19.6575 125.11 19.4755 125.384 19.4391C125.956 19.3542 125.982 19.2208 125.592 18.129C124.72 15.7027 123.002 14.0771 120.464 13.2886L119.553 13.0096L74.1349 12.9975C30.9289 12.9732 28.7686 12.9853 29.8227 13.1794Z" fill="#174ABC"/>
<path d="M121.52 20.9187C120.128 21.7922 117.876 23.9758 118.111 24.2063C118.163 24.2548 118.631 24.2912 119.139 24.2912C121.182 24.2791 122.574 23.066 122.718 21.1614C122.796 20.1666 122.744 20.1545 121.52 20.9187Z" fill="#EF11B6"/>
</svg>
