<svg xmlns="http://www.w3.org/2000/svg" width="20" height="19" viewBox="0 0 20 19" fill="none">
  <path fill-rule="evenodd" clip-rule="evenodd" d="M19.2501 18.9688H11.9971C11.5831 18.9688 11.2471 18.6328 11.2471 18.2188C11.2471 17.8047 11.5831 17.4688 11.9971 17.4688H19.2501C19.6641 17.4688 20.0001 17.8047 20.0001 18.2188C20.0001 18.6328 19.6641 18.9688 19.2501 18.9688Z" fill="#235DFF"/>
  <mask id="mask0_1330_2202" style="mask-type:luminance" maskUnits="userSpaceOnUse" x="0" y="0" width="18" height="19">
    <path fill-rule="evenodd" clip-rule="evenodd" d="M0.499512 0.0292969H17.6801V18.9688H0.499512V0.0292969Z" fill="white"/>
  </mask>
  <g mask="url(#mask0_1330_2202)">
    <path fill-rule="evenodd" clip-rule="evenodd" d="M11.6098 2.04594L2.19479 13.8209C2.02379 14.0349 1.96079 14.3109 2.02379 14.5759L2.70479 17.4609L5.74379 17.4229C6.03279 17.4199 6.29979 17.2909 6.47679 17.0709C9.69379 13.0459 15.8268 5.37194 16.0008 5.14694C16.1648 4.88094 16.2288 4.50494 16.1428 4.14294C16.0548 3.77194 15.8238 3.45694 15.4908 3.25594C15.4198 3.20694 13.7348 1.89894 13.6828 1.85794C13.0488 1.34994 12.1238 1.43794 11.6098 2.04594ZM2.11279 18.9689C1.76579 18.9689 1.46379 18.7309 1.38279 18.3919L0.563786 14.9209C0.394786 14.2019 0.562786 13.4599 1.02379 12.8839L10.4438 1.10194C10.4478 1.09794 10.4508 1.09294 10.4548 1.08894C11.4878 -0.14606 13.3558 -0.328061 14.6158 0.68294C14.6658 0.72194 16.3388 2.02194 16.3388 2.02194C16.9468 2.38394 17.4218 3.03094 17.6018 3.79694C17.7808 4.55494 17.6508 5.33694 17.2338 5.99794C17.2028 6.04694 17.1758 6.08894 7.64779 18.0089C7.18879 18.5809 6.50079 18.9139 5.76179 18.9229L2.12279 18.9689H2.11279Z" fill="#235DFF"/>
  </g>
  <path fill-rule="evenodd" clip-rule="evenodd" d="M14.7224 8.71465C14.5624 8.71465 14.4024 8.66365 14.2654 8.55965L8.81344 4.37165C8.48544 4.11965 8.42344 3.64965 8.67544 3.31965C8.92844 2.99165 9.39844 2.93065 9.72744 3.18265L15.1804 7.36965C15.5084 7.62165 15.5704 8.09265 15.3174 8.42165C15.1704 8.61365 14.9474 8.71465 14.7224 8.71465Z" fill="#235DFF"/>
</svg>