<svg width="28" height="28" viewBox="0 0 28 28" fill="none" xmlns="http://www.w3.org/2000/svg">
<g clip-path="url(#clip0_6698_3896)">
<path d="M16.6242 1.1377H11.3742C6.25547 2.1877 2.18672 6.2127 1.13672 11.3752V16.6252C2.18672 21.7877 6.25547 25.8127 11.3742 26.8627H16.6242C21.7867 25.8127 25.8117 21.7439 26.8617 16.6252V11.3752C25.8117 6.2127 21.743 2.1877 16.6242 1.1377Z" fill="#F9F9F9"/>
<path d="M16.625 11.375V1.1375C15.7937 0.9625 14.9187 0.875 14 0.875C12.6219 0.875 12.2063 0.9625 11.375 1.1375V11.375H1.1375C0.9625 12.2063 0.875 13.0813 0.875 14C0.875 15.3781 0.9625 15.7937 1.1375 16.625H11.375V26.8625C12.2063 27.0375 13.0813 27.125 14 27.125C15.3781 27.125 15.7937 27.0375 16.625 26.8625V16.625H26.8625C27.0375 15.7937 27.125 14.9187 27.125 14C27.125 12.6219 27.0375 12.2063 26.8625 11.375H16.625Z" fill="#ED4C5C"/>
<path d="M7.875 8.75H6.125L6.5625 6.125L6.125 3.5H7.875L7.4375 6.125L7.875 8.75Z" fill="#ED4C5C"/>
<path d="M4.375 7V5.25L7 5.6875L9.625 5.25V7L7 6.5625L4.375 7ZM21.875 8.75H20.125L20.5625 6.125L20.125 3.5H21.875L21.4375 6.125L21.875 8.75Z" fill="#ED4C5C"/>
<path d="M18.375 7V5.25L21 5.6875L23.625 5.25V7L21 6.5625L18.375 7ZM7.875 24.5H6.125C6.125 24.5 6.5625 22.5312 6.5625 21.875C6.5625 21.2188 6.125 19.25 6.125 19.25H7.875C7.875 19.25 7.4375 21.2188 7.4375 21.875C7.4375 22.5312 7.875 24.5 7.875 24.5Z" fill="#ED4C5C"/>
<path d="M4.375 22.75V21L7 21.4375L9.625 21V22.75L7 22.3125L4.375 22.75ZM21.875 24.5H20.125L20.5625 21.875L20.125 19.25H21.875L21.4375 21.875L21.875 24.5Z" fill="#ED4C5C"/>
<path d="M18.375 22.75V21L21 21.4375L23.625 21V22.75L21 22.3125L18.375 22.75Z" fill="#ED4C5C"/>
</g>
<defs>
<clipPath id="clip0_6698_3896">
<rect width="28" height="28" fill="white"/>
</clipPath>
</defs>
</svg>
