<svg width="10.000000" height="14.000000" viewBox="0 0 10 14" fill="none" xmlns="http://www.w3.org/2000/svg" xmlns:xlink="http://www.w3.org/1999/xlink">
	<desc>
			Created with Pixso.
	</desc>
	<defs/>
	<path id="Symbol" d="M4.47 13.21C0.67 7.47 0 6.87 0 4.74C0 1.84 2.21 -0.5 5 -0.5C7.76 -0.5 10 1.84 10 4.74C10 6.87 9.29 7.47 5.49 13.21C5.26 13.59 4.71 13.59 4.47 13.21ZM5 6.93C6.14 6.93 7.08 5.97 7.08 4.74C7.08 3.54 6.14 2.55 5 2.55C3.82 2.55 2.91 3.54 2.91 4.74C2.91 5.97 3.82 6.93 5 6.93Z" fill="#3B71FE" fill-opacity="1.000000" fill-rule="nonzero"/>
</svg>
