<svg width="21" height="20" viewBox="0 0 21 20" fill="none" xmlns="http://www.w3.org/2000/svg">
<g clip-path="url(#clip0_3168_3475)">
<path d="M16.719 1.94412C17.372 2.45612 17.822 3.28312 18.006 4.14912L18.071 4.17512L20.116 5.12112C20.2302 5.17371 20.3271 5.25784 20.3951 5.3636C20.4631 5.46937 20.4995 5.59237 20.5 5.71812V18.0851C20.4993 18.1879 20.4747 18.289 20.4284 18.3807C20.382 18.4723 20.315 18.552 20.2326 18.6134C20.1503 18.6749 20.0548 18.7164 19.9537 18.7347C19.8526 18.753 19.7487 18.7477 19.65 18.7191L13.981 17.1191L7.241 18.9771C7.11942 19.0107 6.99082 19.0094 6.87 18.9731L0.974 17.2181C0.837721 17.1781 0.71799 17.0952 0.632595 16.9817C0.547201 16.8682 0.5007 16.7302 0.5 16.5881L0.5 3.99912C0.5 3.55912 0.928 3.24312 1.355 3.36712L7.057 5.02812L9.955 4.14112C9.995 4.12912 10.0357 4.12079 10.077 4.11612C10.189 3.46012 10.502 2.83012 11.027 2.21612C11.65 1.48612 12.743 1.05812 13.808 1.00712C14.913 0.954123 15.757 1.19012 16.718 1.94312M1.833 4.88212V16.0971L6.703 17.5461V6.29912L1.833 4.88212ZM10.042 5.49612L8.036 6.10912V17.3881L13.101 15.9941V12.6991C13.101 12.3351 13.4 12.0401 13.768 12.0401C14.136 12.0401 14.434 12.3351 14.434 12.7001V15.8771L19.167 17.2121V6.13712L18.047 5.61712C18.0283 5.72712 18.004 5.83479 17.974 5.94012C17.7574 6.7072 17.3925 7.42438 16.9 8.05112L14.423 11.1441C14.3578 11.2254 14.2745 11.2904 14.1797 11.3339C14.085 11.3774 13.9814 11.3981 13.8772 11.3946C13.773 11.391 13.6711 11.3631 13.5796 11.3132C13.4881 11.2633 13.4095 11.1927 13.35 11.1071L11.035 7.75412C10.6523 7.22146 10.3853 6.74279 10.234 6.31812C10.1389 6.05234 10.0744 5.77655 10.042 5.49612ZM13.872 2.32512C13.146 2.36012 12.4 2.65212 12.045 3.06712C11.618 3.56712 11.408 4.03512 11.366 4.50912C11.316 5.08012 11.35 5.48312 11.492 5.88212C11.597 6.17712 11.806 6.55112 12.129 7.00212L13.94 9.62412L15.85 7.23912C16.2356 6.74684 16.5213 6.18396 16.691 5.58212C16.931 4.74212 16.569 3.50812 15.891 2.97812C15.196 2.43312 14.671 2.28612 13.873 2.32512M14.011 3.02212C15.115 3.02212 16.011 3.90712 16.011 4.99912C16.0076 5.52638 15.795 6.03073 15.42 6.4014C15.045 6.77208 14.5383 6.97878 14.011 6.97612C12.907 6.97612 12.011 6.09112 12.011 4.99912C12.011 3.90712 12.907 3.02212 14.011 3.02212ZM14.011 4.34012C13.9239 4.3396 13.8376 4.35622 13.757 4.38906C13.6763 4.42189 13.603 4.47029 13.541 4.53148C13.4791 4.59267 13.4298 4.66547 13.396 4.74571C13.3622 4.82595 13.3445 4.91206 13.344 4.99912C13.344 5.36312 13.643 5.65812 14.011 5.65812C14.0981 5.65852 14.1844 5.64176 14.2649 5.60881C14.3455 5.57585 14.4188 5.52735 14.4807 5.46606C14.5425 5.40477 14.5917 5.3319 14.6254 5.25161C14.6591 5.17133 14.6766 5.08519 14.677 4.99812C14.6757 4.82263 14.6048 4.65482 14.48 4.53148C14.3551 4.40814 14.1865 4.33932 14.011 4.34012Z" fill="white"/>
</g>
<defs>
<clipPath id="clip0_3168_3475">
<rect width="20" height="20" fill="white" transform="translate(0.5)"/>
</clipPath>
</defs>
</svg>
