<svg width="30" height="30" viewBox="0 0 30 30" fill="none" xmlns="http://www.w3.org/2000/svg">
<g clip-path="url(#clip0_5531_12322)">
<path d="M15 29.0625C22.7665 29.0625 29.0625 22.7665 29.0625 15C29.0625 7.2335 22.7665 0.9375 15 0.9375C7.2335 0.9375 0.9375 7.2335 0.9375 15C0.9375 22.7665 7.2335 29.0625 15 29.0625Z" fill="#FFCE31"/>
<path d="M15 27.6562C21.9899 27.6562 27.6562 21.9899 27.6562 15C27.6562 8.01015 21.9899 2.34375 15 2.34375C8.01015 2.34375 2.34375 8.01015 2.34375 15C2.34375 21.9899 8.01015 27.6562 15 27.6562Z" fill="#ED4C5C"/>
<path d="M21.375 14.6719L22.5469 14.1094L23.0625 13.3594L23.0156 13.1719L22.3594 13.6406L21.7969 13.875H21.7031L22.5 13.4062L23.0156 12.4219L22.9219 12.2344L22.3594 12.8437L21.75 13.2656H21.7031L22.6875 12.0937L22.875 11.1562L22.7812 11.1094L22.125 12.1875L21.8437 12.4687L21.7969 12.4219L22.3594 11.4844L22.5469 10.5L22.4062 9.89062L22.3125 9.84375L21.9375 10.9687L21.5625 11.625L21.5156 11.5781L21.9375 9.89062L21.7969 8.625L21.6094 8.4375L21.4687 9.60937L21.1406 10.6406L21.0937 10.5938L21.2344 9.84375L21.1875 8.4375L20.8125 7.73437L20.5312 9.89062L20.3906 9.9375L19.9687 11.1094L19.5469 11.7187L19.4531 11.5312H19.3594L18.7969 12.4219L18.2344 13.3594L18.6094 13.9687L18.8438 14.3437L18.4688 14.5781L18 14.625L17.8594 14.8594L17.6719 15H17.625L17.9062 13.8281L17.0156 12.7969L16.875 12.8437V12.75L16.7344 12.2812H16.9688V12.0937L16.875 11.7187L16.9219 11.5781L17.1094 11.7187L17.2031 11.5312L17.3906 11.1562L17.6719 11.25L18.2344 11.0625L18.4219 10.875L18.9844 11.0156L19.5937 10.7344L19.5469 10.2187H19.4531L19.3125 10.5938L18.8906 10.6406L18.3281 10.5938L18.0937 10.6406L18.4688 10.4062L18.8438 10.5H18.9844L18.9375 10.0312L18.5156 9.84375L18.2812 9.89062L17.9531 9.5625L17.1094 9.75H16.7344L16.4062 9.5625L16.4531 9.32812L16.5469 9.28125L16.5938 9.1875L16.5 9.04687L16.6875 8.8125L16.875 8.71875H17.0156L17.0625 8.67187L17.1562 8.57812V8.29688L17.2031 8.15625V8.10937L17.25 7.96875L17.1562 7.82813H17.1094L17.0625 7.6875L16.9688 7.59375V7.5L16.875 7.35937H16.7812L16.5469 7.21875L16.4531 7.17187L16.4062 7.07812L16.3125 7.03125H16.2656L15.9375 6.89062L15.8437 6.84375L15.5156 6.70312L15.4219 6.65625L15.5156 6.42187L15.3281 6.14063L15.1875 6.09375V6H15.375V5.71875H15.1875L15.2344 5.53125H14.9062L14.9531 5.71875H14.7656V6H14.9531V6.09375L14.8125 6.14063L14.6719 6.42187L14.7656 6.65625L14.6719 6.70312L14.3437 6.84375L14.25 6.89062L13.875 6.98437H13.8281L13.7344 7.03125L13.6875 7.125L13.5937 7.17187L13.3594 7.3125H13.2656L13.1719 7.45312V7.54688L13.0781 7.64062L13.0312 7.78125H12.9844L12.8906 7.92187L12.9375 8.0625V8.10937L12.9844 8.25V8.53125L13.0781 8.625L13.125 8.67187H13.2656L13.4531 8.76562L13.6406 9L13.5469 9.14062L13.5937 9.23438L13.6875 9.28125L13.7344 9.51562L13.4062 9.70312H13.0312L12.1875 9.46875L11.8594 9.79687L11.625 9.75L11.2031 9.9375L11.1562 10.4062H11.2969L11.6719 10.3125L12.0469 10.5469L11.8125 10.5L11.25 10.5469L10.8281 10.5L10.6875 10.125H10.5937L10.5469 10.6406L11.1562 10.9219L11.7187 10.7812L11.9062 10.9687L12.4687 11.1562L12.75 11.0625L12.9375 11.4375L13.0312 11.625L13.2188 11.4844L13.2656 11.625L13.2188 12.0469V12.2344H13.4531L13.3125 12.7031L13.2656 12.75L13.125 12.7031L12.1875 13.7812L12.4687 14.9531H12.4219L12.2344 14.8125L12.0937 14.5781L11.625 14.5312L11.25 14.3437L11.4844 13.9687L11.8594 13.3594L11.2969 12.4219L10.7344 11.5312H10.6406L10.5469 11.7187L10.125 11.1094L9.70312 9.9375L9.5625 9.89062L9.28125 7.73437L8.90625 8.4375L8.8125 9.75L8.95312 10.5L8.90625 10.5469L8.57812 9.51562L8.48438 8.4375L8.29688 8.71875L8.15625 9.98437L8.57812 11.6719L8.53125 11.7187L8.10937 10.9687L7.73437 9.84375L7.64062 9.89062L7.5 10.5L7.6875 11.4844L8.25 12.4219L8.20312 12.4687L7.96875 12.0937L7.3125 11.0156L7.21875 11.0625L7.40625 12L8.39062 13.1719H8.34375L7.73437 12.75L7.17187 12.1406L7.07813 12.3281L7.59375 13.3125L8.39062 13.7812H8.29688L7.73437 13.5469L7.07813 13.0781L7.03125 13.3594L7.54688 14.1094L8.71875 14.6719L8.76563 14.7187L8.34375 14.625L7.3125 14.2031L7.17187 14.25L7.6875 15.0469L8.71875 15.3281L8.76563 15.375L8.25 15.3281L7.59375 15.1406L7.54688 15H7.59375L7.5 15.0469L7.40625 15V14.8125L7.35937 14.7656L7.07813 14.9062L7.125 15.0469L7.21875 15.1875L6.98437 15.2344L6.9375 15.3281L7.03125 15.6094H7.07813L7.26562 15.5156L7.3125 15.75L7.17187 15.8437L7.21875 16.0312L7.54688 16.3594L7.78125 17.6719L8.34375 18.7031L8.39062 18.7969L8.34375 19.0312L8.53125 19.2656L8.57812 19.3594V19.7812L8.85937 20.3906L8.90625 20.4844L8.8125 20.5312L8.625 20.7656V21.0469L8.8125 21.2812L8.76563 21.375L8.90625 21.6562L9.14062 21.75V21.8906L9.32812 22.0312H9.5625L9.70312 22.0781V22.6406L9.89062 22.5938L10.0781 22.6406L10.3125 22.7344V22.5938L10.3594 22.3594L10.5937 22.3125L10.6875 22.2188L10.5 22.125L10.2656 21.9375L10.2187 21.8437L10.2656 21.75V21.6562L10.3594 21.5625L10.5 21.4219L10.6875 21.1406L10.9219 20.9531L11.25 20.6719L11.625 20.4844L11.6719 20.7188L12.1406 20.4375L12.6562 20.1562L12.7969 20.3438L13.3125 19.8281L14.1094 18.9375L14.2031 18.9844V19.0312L14.0625 19.3594L13.6406 19.6875L13.5 20.2031L13.5937 20.4375L13.3594 20.7656L13.2656 21.1875L13.1719 21.3281L12.7969 21.6562L12.3281 21.9844L12.2812 22.1719L12.5625 22.3594L12.8437 22.4062V22.5L12.75 22.875L13.0312 22.9688L13.3594 22.875V22.9219L13.3125 23.1094L13.3594 23.3437L13.5469 23.2969L13.8281 23.2031L14.0156 23.1094L13.9687 23.25V23.5781L14.1562 23.8594L14.3437 23.8125L14.5312 23.5781L14.625 23.9062L15 24.4688L15.375 23.9062L15.4688 23.5781L15.6563 23.8125L15.8437 23.8594L16.0312 23.5781V23.25L15.9844 23.1094L16.1719 23.2031L16.4531 23.2969L16.6406 23.3437L16.6875 23.1094L16.6406 22.9219V22.875L16.9688 22.9688L17.25 22.875V22.4062L17.5312 22.3594L17.8125 22.1719L17.7656 21.9844L17.2969 21.6562L16.9219 21.3281L16.875 21.1875L16.7812 20.7656L16.5469 20.4375L16.6406 20.2031L16.5 19.6875L16.1719 19.3125L16.0312 18.9844V18.9375L16.125 18.8906L16.9219 19.7812L17.4375 20.2969L17.5781 20.1094L18.0937 20.3906L18.5625 20.6719L18.6094 20.5312L18.9844 20.6719L19.3125 20.8125L19.7812 21.1406L20.5781 21.1875L21.8906 20.7188L22.4062 20.4375L22.4531 20.1562L22.3594 20.0156V19.9219L22.3125 19.7344L22.2656 19.5L21.75 18.7031L21.7031 18.6562L21.6562 18.6094V18.375H21.7031L21.7969 18.4219L21.8906 18.3281L21.9844 18.0937L21.9375 18H21.7969L21.75 17.9531L21.7969 17.8125L21.75 17.7187L21.5625 17.625L21.5156 17.6719V17.8125H21.2344L21.1406 18.0937V18.1875H21.3281L21.375 18.2344L21.2812 18.375L21.1875 18.4219H21.0469L20.4844 18.6094L20.1562 18.9844L20.0625 19.0781L19.9219 19.2656L19.8281 19.4531L19.7812 19.9687L20.0156 20.3438L19.9687 20.4375L19.7812 20.3438L19.2656 19.9687L19.2188 19.875L19.3125 19.8281V19.7344L19.0312 19.5937V19.4531L19.1719 19.2656L18.75 19.1719L18.6094 19.0781L18.7031 18.9375V18.8438L18.2344 18.75L17.5312 18L18 18.4219L18.2812 18.2344L18.0937 18H18.1406L18.8906 18.3281L19.4062 18.1875L19.2656 18L19.3125 17.9531H20.0156L20.5312 17.5781L20.1562 17.4844L20.1094 17.3438H20.8594L21.2344 16.9219L20.8125 16.8281L20.6719 16.7344L21.5156 16.6875L21.9375 16.125V16.0312L21.3281 16.125L20.9531 16.0781L22.0781 15.8437L22.5 15.1406L21.7969 15.3281L21.2812 15.375L21.3281 15.3281L22.3594 15.0469L22.875 14.25L22.7344 14.2031L21.7031 14.625L21.2812 14.7187L21.375 14.6719ZM7.73437 15.5625L7.59375 15.6562L7.5 15.4688V15.4219L7.64062 15.375L7.73437 15.5625ZM12.375 18.2812L11.8594 18.7031L11.3906 18.7969V18.8906L11.4844 19.0312L11.3438 19.125L10.9219 19.2187L11.0625 19.4062V19.5469L10.7812 19.6875V19.7812L11.0625 19.875L10.9219 19.9687L10.4062 20.1562H9.375L9.32812 19.875L9.14062 19.4062L8.90625 19.125V19.0312L8.85937 18.8438L8.625 18.6094V18.4219L8.48438 17.7656L8.01562 16.9219L7.78125 16.125V15.7031L7.82813 15.6094L8.01562 15.7969L9.14062 16.0312L8.76563 16.0781L8.10937 15.9844V16.0781L8.53125 16.6406L9.375 16.6875L9.23438 16.7812L8.8125 16.875L9.1875 17.2969H9.9375L9.84375 17.3906L9.46875 17.4844L9.98437 17.8594H10.6875L10.7344 17.9062L10.5937 18.0937L11.1094 18.2344L11.8594 17.9062H11.9062L11.7187 18.1406L12 18.3281L12.4687 17.9062L12.375 18.2812ZM16.4062 7.5L16.3594 7.35937L16.6406 7.59375L16.7812 7.82813V8.29688L16.8281 8.34375L16.6406 8.4375H16.4062L16.3594 8.34375L16.5469 8.0625L16.4062 7.5ZM15.375 8.10937L15.4219 7.6875L15.3281 7.125L15.6563 7.35937L15.8906 7.82813L15.8437 8.10937L15.8906 8.29688L15.75 8.39062L15.5156 8.4375L15.2812 8.34375L15.1875 8.29688L15.375 8.10937ZM14.4375 7.35937L14.7656 7.125L14.6719 7.6875L14.7187 8.10937L14.8594 8.29688L14.7656 8.34375L14.5312 8.4375L14.2969 8.39062L14.1562 8.29688L14.2031 8.10937L14.1562 7.82813L14.4375 7.35937ZM13.6875 8.4375H13.4531L13.3125 8.39062L13.3594 8.34375V7.875L13.5 7.64062L13.7812 7.40625L13.6875 7.5L13.5469 8.0625L13.7344 8.34375L13.6875 8.4375ZM16.3594 10.3594L16.0781 10.5469L16.2656 10.6875L15.9375 10.9687L15.6094 11.1094L15.5625 11.2031L15.7031 11.3906L15.75 11.4375L15.375 11.7656L15.1406 11.9062L15.0938 12.1406L15.2344 12.3281V12.4687L15 12.7969L14.7656 12.4687V12.3281L14.9062 12.1406L14.8594 11.9062L14.625 11.7656L14.25 11.4375L14.2969 11.3906L14.4375 11.2031L14.3906 11.1094L14.1094 10.9687L13.7812 10.6875L13.9687 10.5469L13.6875 10.3594L13.4062 10.125L13.7344 9.84375L13.7812 9.60937L14.9531 9.79687L16.125 9.60937L16.1719 9.84375L16.5 10.125L16.3594 10.3594Z" fill="#FFCE31"/>
<path d="M12.6562 14.5312H17.3438V17.3438H12.6562V14.5312Z" fill="#428BC1"/>
<path d="M15 20.1562L16.875 18.2812H13.125L15 20.1562Z" fill="#83BF4F"/>
<path d="M14.2031 17.1094L13.9219 17.3438H14.5781L14.7187 17.1562L15.2344 16.7344L15.5156 17.1562L15.6094 17.3438H16.0781L15.9844 17.1094L16.3594 16.7344L16.5469 16.5938L16.6406 15.1875L16.2656 15.4219L16.3594 16.1719L15.8437 15.75H14.8125L14.9062 15.4688L14.4844 15L14.0625 15.4688L14.1562 15.7969L13.8281 16.1719L13.4531 15.9844L13.2188 16.3594L13.7812 16.6406L14.2031 17.1094Z" fill="#FFCE31"/>
</g>
<defs>
<clipPath id="clip0_5531_12322">
<rect width="30" height="30" fill="white"/>
</clipPath>
</defs>
</svg>
