<svg width="24" height="24" viewBox="0 0 24 24" fill="none" xmlns="http://www.w3.org/2000/svg">
<path d="M16.4998 20.2502C16.4998 20.4491 16.4208 20.6399 16.2801 20.7805C16.1395 20.9212 15.9487 21.0002 15.7498 21.0002H2.2498C2.05089 21.0002 1.86013 20.9212 1.71947 20.7805C1.57882 20.6399 1.4998 20.4491 1.4998 20.2502C1.4998 20.0513 1.57882 19.8605 1.71947 19.7198C1.86013 19.5792 2.05089 19.5002 2.2498 19.5002H15.7498C15.9487 19.5002 16.1395 19.5792 16.2801 19.7198C16.4208 19.8605 16.4998 20.0513 16.4998 20.2502ZM23.2367 8.73299C23.2171 8.83738 23.1755 8.9364 23.1147 9.02352C23.0539 9.11063 22.9754 9.18384 22.8842 9.2383L9.06449 17.4883C8.48843 17.8261 7.83292 18.0047 7.16512 18.0058C6.21385 18.0047 5.29895 17.6402 4.60762 16.9867L4.59637 16.9755L1.21855 13.6689C1.03984 13.4992 0.905694 13.2881 0.827982 13.0542C0.750271 12.8203 0.731388 12.5709 0.773002 12.328C0.814617 12.085 0.915447 11.8561 1.06658 11.6614C1.21771 11.4667 1.41448 11.3123 1.63949 11.2117L1.92074 11.0739C2.09836 10.9867 2.30323 10.9733 2.49074 11.0364L5.14012 11.9308L7.03105 10.7871L4.98449 8.80049C4.80044 8.63093 4.66174 8.41801 4.58102 8.18113C4.5003 7.94426 4.48013 7.69095 4.52235 7.44428C4.56456 7.19761 4.66782 6.96543 4.82271 6.76887C4.97761 6.57232 5.17922 6.41764 5.40918 6.31893L5.43918 6.30674L6.10949 6.05268C6.2785 5.98966 6.46455 5.98966 6.63355 6.05268L11.6904 7.9108L16.5251 5.02518C17.2956 4.56664 18.2053 4.40069 19.088 4.55768C19.9708 4.71467 20.7675 5.18411 21.3326 5.88018L21.3439 5.89424L23.0914 8.13393C23.1566 8.21779 23.2034 8.31456 23.2284 8.41784C23.2535 8.52112 23.2563 8.62854 23.2367 8.73299ZM21.3861 8.38612L20.1673 6.8233C19.8281 6.40833 19.3513 6.12883 18.8235 6.03559C18.2957 5.94235 17.7519 6.04155 17.2911 6.31518L12.1536 9.38268C12.0573 9.43973 11.9496 9.47471 11.8383 9.48508C11.7269 9.49546 11.6146 9.48098 11.5095 9.44268L6.3748 7.55455L5.9998 7.69799L6.01949 7.71674L8.77199 10.3877C8.85419 10.4676 8.917 10.5652 8.95558 10.6731C8.99415 10.7811 9.00748 10.8964 8.99454 11.0103C8.98159 11.1242 8.94272 11.2336 8.8809 11.3301C8.81908 11.4266 8.73596 11.5077 8.63793 11.5671L5.61824 13.3942C5.52483 13.4507 5.42023 13.486 5.31174 13.4978C5.20325 13.5097 5.09349 13.4977 4.99012 13.4627L2.3023 12.5561L2.28449 12.5655L2.2498 12.5814C2.25432 12.5847 2.25841 12.5884 2.26199 12.5927L5.63699 15.8983C5.98921 16.2293 6.4392 16.4372 6.91954 16.491C7.39988 16.5447 7.8847 16.4414 8.30137 16.1964L21.3861 8.38612Z" fill="#235DFF"/>
</svg>
