<svg width="104" height="16" viewBox="0 0 104 16" fill="none" xmlns="http://www.w3.org/2000/svg">
<g clip-path="url(#clip0_4914_22449)">
<path d="M7.44832 1.36768C7.62373 0.968816 7.71143 0.769384 7.83252 0.707176C7.93777 0.653109 8.06093 0.653109 8.16618 0.707176C8.28727 0.769384 8.37497 0.968816 8.55038 1.36768L10.1755 5.0631C10.2274 5.18113 10.2534 5.24015 10.2928 5.28555C10.3276 5.32572 10.37 5.35798 10.4172 5.38034C10.4705 5.4056 10.532 5.41325 10.6551 5.42856L14.5082 5.90772C14.924 5.95943 15.132 5.98529 15.2258 6.08686C15.3073 6.17514 15.3454 6.298 15.3289 6.41969C15.3099 6.5597 15.1562 6.70882 14.8487 7.00705L12.0001 9.7701C11.9091 9.85836 11.8636 9.90248 11.8346 9.9558C11.8089 10.003 11.7928 10.0552 11.7871 10.1092C11.7806 10.1702 11.7927 10.2339 11.8169 10.3614L12.573 14.353C12.6547 14.7838 12.6955 14.9992 12.6324 15.1242C12.5775 15.2328 12.4779 15.3088 12.3624 15.3299C12.2296 15.3542 12.0469 15.247 11.6815 15.0324L8.29575 13.0446C8.18761 12.9812 8.13353 12.9494 8.07623 12.937C8.02551 12.926 7.97319 12.926 7.92247 12.937C7.86516 12.9494 7.81109 12.9812 7.70295 13.0446L4.31725 15.0324C3.95181 15.247 3.76909 15.3542 3.63626 15.3299C3.52082 15.3088 3.42118 15.2328 3.36633 15.1242C3.30323 14.9992 3.34404 14.7838 3.42566 14.353L4.18183 10.3614C4.20598 10.2339 4.21806 10.1702 4.21163 10.1092C4.20595 10.0552 4.18978 10.003 4.16412 9.9558C4.13513 9.90248 4.08964 9.85836 3.99865 9.7701L1.14999 7.00705C0.842521 6.70882 0.688786 6.5597 0.669798 6.41969C0.653296 6.298 0.691355 6.17514 0.772903 6.08686C0.86673 5.98529 1.07467 5.95943 1.49055 5.90772L5.34359 5.42856C5.46666 5.41325 5.5282 5.4056 5.58153 5.38034C5.62873 5.35798 5.67107 5.32572 5.70593 5.28555C5.74532 5.24015 5.77127 5.18113 5.82318 5.0631L7.44832 1.36768Z" fill="#FF8800"/>
</g>
<g clip-path="url(#clip1_4914_22449)">
<path d="M29.4483 1.36768C29.6237 0.968816 29.7114 0.769384 29.8325 0.707176C29.9378 0.653109 30.0609 0.653109 30.1662 0.707176C30.2873 0.769384 30.375 0.968816 30.5504 1.36768L32.1755 5.0631C32.2274 5.18113 32.2534 5.24015 32.2928 5.28555C32.3276 5.32572 32.37 5.35798 32.4172 5.38034C32.4705 5.4056 32.532 5.41325 32.6551 5.42856L36.5082 5.90772C36.924 5.95943 37.132 5.98529 37.2258 6.08686C37.3073 6.17514 37.3454 6.298 37.3289 6.41969C37.3099 6.5597 37.1562 6.70882 36.8487 7.00705L34.0001 9.7701C33.9091 9.85836 33.8636 9.90248 33.8346 9.9558C33.8089 10.003 33.7928 10.0552 33.7871 10.1092C33.7806 10.1702 33.7927 10.2339 33.8169 10.3614L34.573 14.353C34.6547 14.7838 34.6955 14.9992 34.6324 15.1242C34.5775 15.2328 34.4779 15.3088 34.3624 15.3299C34.2296 15.3542 34.0469 15.247 33.6815 15.0324L30.2957 13.0446C30.1876 12.9812 30.1335 12.9494 30.0762 12.937C30.0255 12.926 29.9732 12.926 29.9225 12.937C29.8652 12.9494 29.8111 12.9812 29.703 13.0446L26.3172 15.0324C25.9518 15.247 25.7691 15.3542 25.6363 15.3299C25.5208 15.3088 25.4212 15.2328 25.3663 15.1242C25.3032 14.9992 25.344 14.7838 25.4257 14.353L26.1818 10.3614C26.206 10.2339 26.2181 10.1702 26.2116 10.1092C26.2059 10.0552 26.1898 10.003 26.1641 9.9558C26.1351 9.90248 26.0896 9.85836 25.9986 9.7701L23.15 7.00705C22.8425 6.70882 22.6888 6.5597 22.6698 6.41969C22.6533 6.298 22.6914 6.17514 22.7729 6.08686C22.8667 5.98529 23.0747 5.95943 23.4905 5.90772L27.3436 5.42856C27.4667 5.41325 27.5282 5.4056 27.5815 5.38034C27.6287 5.35798 27.6711 5.32572 27.7059 5.28555C27.7453 5.24015 27.7713 5.18113 27.8232 5.0631L29.4483 1.36768Z" fill="#FF8800"/>
</g>
<g clip-path="url(#clip2_4914_22449)">
<path d="M51.4483 1.36768C51.6237 0.968816 51.7114 0.769384 51.8325 0.707176C51.9378 0.653109 52.0609 0.653109 52.1662 0.707176C52.2873 0.769384 52.375 0.968816 52.5504 1.36768L54.1755 5.0631C54.2274 5.18113 54.2534 5.24015 54.2928 5.28555C54.3276 5.32572 54.37 5.35798 54.4172 5.38034C54.4705 5.4056 54.532 5.41325 54.6551 5.42856L58.5082 5.90772C58.924 5.95943 59.132 5.98529 59.2258 6.08686C59.3073 6.17514 59.3454 6.298 59.3289 6.41969C59.3099 6.5597 59.1562 6.70882 58.8487 7.00705L56.0001 9.7701C55.9091 9.85836 55.8636 9.90248 55.8346 9.9558C55.8089 10.003 55.7928 10.0552 55.7871 10.1092C55.7806 10.1702 55.7927 10.2339 55.8169 10.3614L56.573 14.353C56.6547 14.7838 56.6955 14.9992 56.6324 15.1242C56.5775 15.2328 56.4779 15.3088 56.3624 15.3299C56.2296 15.3542 56.0469 15.247 55.6815 15.0324L52.2957 13.0446C52.1876 12.9812 52.1335 12.9494 52.0762 12.937C52.0255 12.926 51.9732 12.926 51.9225 12.937C51.8652 12.9494 51.8111 12.9812 51.703 13.0446L48.3172 15.0324C47.9518 15.247 47.7691 15.3542 47.6363 15.3299C47.5208 15.3088 47.4212 15.2328 47.3663 15.1242C47.3032 14.9992 47.344 14.7838 47.4257 14.353L48.1818 10.3614C48.206 10.2339 48.2181 10.1702 48.2116 10.1092C48.2059 10.0552 48.1898 10.003 48.1641 9.9558C48.1351 9.90248 48.0896 9.85836 47.9986 9.7701L45.15 7.00705C44.8425 6.70882 44.6888 6.5597 44.6698 6.41969C44.6533 6.298 44.6914 6.17514 44.7729 6.08686C44.8667 5.98529 45.0747 5.95943 45.4905 5.90772L49.3436 5.42856C49.4667 5.41325 49.5282 5.4056 49.5815 5.38034C49.6287 5.35798 49.6711 5.32572 49.7059 5.28555C49.7453 5.24015 49.7713 5.18113 49.8232 5.0631L51.4483 1.36768Z" fill="#FF8800"/>
</g>
<g clip-path="url(#clip3_4914_22449)">
<path d="M73.4483 1.36768C73.6237 0.968816 73.7114 0.769384 73.8325 0.707176C73.9378 0.653109 74.0609 0.653109 74.1662 0.707176C74.2873 0.769384 74.375 0.968816 74.5504 1.36768L76.1755 5.0631C76.2274 5.18113 76.2534 5.24015 76.2928 5.28555C76.3276 5.32572 76.37 5.35798 76.4172 5.38034C76.4705 5.4056 76.532 5.41325 76.6551 5.42856L80.5082 5.90772C80.924 5.95943 81.132 5.98529 81.2258 6.08686C81.3073 6.17514 81.3454 6.298 81.3289 6.41969C81.3099 6.5597 81.1562 6.70882 80.8487 7.00705L78.0001 9.7701C77.9091 9.85836 77.8636 9.90248 77.8346 9.9558C77.8089 10.003 77.7928 10.0552 77.7871 10.1092C77.7806 10.1702 77.7927 10.2339 77.8169 10.3614L78.573 14.353C78.6547 14.7838 78.6955 14.9992 78.6324 15.1242C78.5775 15.2328 78.4779 15.3088 78.3624 15.3299C78.2296 15.3542 78.0469 15.247 77.6815 15.0324L74.2957 13.0446C74.1876 12.9812 74.1335 12.9494 74.0762 12.937C74.0255 12.926 73.9732 12.926 73.9225 12.937C73.8652 12.9494 73.8111 12.9812 73.703 13.0446L70.3172 15.0324C69.9518 15.247 69.7691 15.3542 69.6363 15.3299C69.5208 15.3088 69.4212 15.2328 69.3663 15.1242C69.3032 14.9992 69.344 14.7838 69.4257 14.353L70.1818 10.3614C70.206 10.2339 70.2181 10.1702 70.2116 10.1092C70.2059 10.0552 70.1898 10.003 70.1641 9.9558C70.1351 9.90248 70.0896 9.85836 69.9986 9.7701L67.15 7.00705C66.8425 6.70882 66.6888 6.5597 66.6698 6.41969C66.6533 6.298 66.6914 6.17514 66.7729 6.08686C66.8667 5.98529 67.0747 5.95943 67.4905 5.90772L71.3436 5.42856C71.4667 5.41325 71.5282 5.4056 71.5815 5.38034C71.6287 5.35798 71.6711 5.32572 71.7059 5.28555C71.7453 5.24015 71.7713 5.18113 71.8232 5.0631L73.4483 1.36768Z" fill="#FF8800"/>
</g>
<g clip-path="url(#clip4_4914_22449)">
<path d="M95.4483 1.36768C95.6237 0.968816 95.7114 0.769384 95.8325 0.707176C95.9378 0.653109 96.0609 0.653109 96.1662 0.707176C96.2873 0.769384 96.375 0.968816 96.5504 1.36768L98.1755 5.0631C98.2274 5.18113 98.2534 5.24015 98.2928 5.28555C98.3276 5.32572 98.37 5.35798 98.4172 5.38034C98.4705 5.4056 98.532 5.41325 98.6551 5.42856L102.508 5.90772C102.924 5.95943 103.132 5.98529 103.226 6.08686C103.307 6.17514 103.345 6.298 103.329 6.41969C103.31 6.5597 103.156 6.70882 102.849 7.00705L100 9.7701C99.9091 9.85836 99.8636 9.90248 99.8346 9.9558C99.8089 10.003 99.7928 10.0552 99.7871 10.1092C99.7806 10.1702 99.7927 10.2339 99.8169 10.3614L100.573 14.353C100.655 14.7838 100.695 14.9992 100.632 15.1242C100.578 15.2328 100.478 15.3088 100.362 15.3299C100.23 15.3542 100.047 15.247 99.6815 15.0324L96.2957 13.0446C96.1876 12.9812 96.1335 12.9494 96.0762 12.937C96.0255 12.926 95.9732 12.926 95.9225 12.937C95.8652 12.9494 95.8111 12.9812 95.703 13.0446L92.3172 15.0324C91.9518 15.247 91.7691 15.3542 91.6363 15.3299C91.5208 15.3088 91.4212 15.2328 91.3663 15.1242C91.3032 14.9992 91.344 14.7838 91.4257 14.353L92.1818 10.3614C92.206 10.2339 92.2181 10.1702 92.2116 10.1092C92.2059 10.0552 92.1898 10.003 92.1641 9.9558C92.1351 9.90248 92.0896 9.85836 91.9986 9.7701L89.15 7.00705C88.8425 6.70882 88.6888 6.5597 88.6698 6.41969C88.6533 6.298 88.6914 6.17514 88.7729 6.08686C88.8667 5.98529 89.0747 5.95943 89.4905 5.90772L93.3436 5.42856C93.4667 5.41325 93.5282 5.4056 93.5815 5.38034C93.6287 5.35798 93.6711 5.32572 93.7059 5.28555C93.7453 5.24015 93.7713 5.18113 93.8232 5.0631L95.4483 1.36768Z" fill="#FF8800"/>
</g>
<defs>
<clipPath id="clip0_4914_22449">
<rect width="16" height="16" fill="white"/>
</clipPath>
<clipPath id="clip1_4914_22449">
<rect width="16" height="16" fill="white" transform="translate(22)"/>
</clipPath>
<clipPath id="clip2_4914_22449">
<rect width="16" height="16" fill="white" transform="translate(44)"/>
</clipPath>
<clipPath id="clip3_4914_22449">
<rect width="16" height="16" fill="white" transform="translate(66)"/>
</clipPath>
<clipPath id="clip4_4914_22449">
<rect width="16" height="16" fill="white" transform="translate(88)"/>
</clipPath>
</defs>
</svg>
