<svg width="16" height="16" viewBox="0 0 16 16" fill="none" xmlns="http://www.w3.org/2000/svg">
<g clip-path="url(#clip0_5750_4626)">
<path d="M7.44832 1.36756C7.62373 0.968694 7.71143 0.769262 7.83252 0.707054C7.93777 0.652987 8.06093 0.652987 8.16618 0.707054C8.28727 0.769262 8.37497 0.968694 8.55038 1.36756L10.1755 5.06298C10.2274 5.18101 10.2534 5.24003 10.2928 5.28542C10.3276 5.3256 10.37 5.35786 10.4172 5.38022C10.4705 5.40548 10.532 5.41313 10.6551 5.42844L14.5082 5.90759C14.924 5.95931 15.132 5.98517 15.2258 6.08674C15.3073 6.17502 15.3454 6.29787 15.3289 6.41957C15.3099 6.55958 15.1562 6.7087 14.8487 7.00693L12.0001 9.76998C11.9091 9.85823 11.8636 9.90236 11.8346 9.95568C11.8089 10.0029 11.7928 10.0551 11.7871 10.1091C11.7806 10.1701 11.7927 10.2338 11.8169 10.3613L12.573 14.3529C12.6547 14.7837 12.6955 14.9991 12.6324 15.1241C12.5775 15.2327 12.4779 15.3086 12.3624 15.3298C12.2296 15.3541 12.0469 15.2468 11.6815 15.0323L8.29575 13.0445C8.18761 12.981 8.13353 12.9493 8.07623 12.9368C8.02551 12.9258 7.97319 12.9258 7.92247 12.9368C7.86516 12.9493 7.81109 12.981 7.70295 13.0445L4.31725 15.0323C3.95181 15.2468 3.76909 15.3541 3.63626 15.3298C3.52082 15.3086 3.42118 15.2327 3.36633 15.1241C3.30323 14.9991 3.34404 14.7837 3.42566 14.3529L4.18183 10.3613C4.20598 10.2338 4.21806 10.1701 4.21163 10.1091C4.20595 10.0551 4.18978 10.0029 4.16412 9.95568C4.13513 9.90236 4.08964 9.85823 3.99865 9.76998L1.14999 7.00693C0.842521 6.7087 0.688786 6.55958 0.669798 6.41957C0.653296 6.29787 0.691355 6.17502 0.772903 6.08674C0.86673 5.98517 1.07467 5.95931 1.49055 5.90759L5.34359 5.42844C5.46666 5.41313 5.5282 5.40548 5.58153 5.38022C5.62873 5.35786 5.67107 5.3256 5.70593 5.28542C5.74532 5.24003 5.77127 5.18101 5.82318 5.06298L7.44832 1.36756Z" fill="#FF8800"/>
</g>
<defs>
<clipPath id="clip0_5750_4626">
<rect width="16" height="16" fill="white"/>
</clipPath>
</defs>
</svg>
