<svg width="20.000000" height="17.000000" padding='5px' viewBox="0 0 19 17" fill="#272829" xmlns="http://www.w3.org/2000/svg" xmlns:xlink="http://www.w3.org/1999/xlink">
	<desc>
			Created with Pixso.
	</desc>
	<defs/>
	<path id="Stroke 1" d="M13.83 1.79C14.21 1.79 14.53 2.07 14.58 2.44L14.58 2.54L14.58 16.16C14.58 16.57 14.25 16.91 13.83 16.91C13.46 16.91 13.14 16.63 13.09 16.26L13.08 16.16L13.08 2.54C13.08 2.13 13.42 1.79 13.83 1.79Z" fill="#272829" fill-opacity="1.000000" fill-rule="nonzero"/>
	<path id="Stroke 3" d="M17.38 11.53C17.67 11.24 18.15 11.24 18.44 11.53C18.71 11.8 18.73 12.21 18.52 12.51L18.44 12.59L14.37 16.69C14.1 16.96 13.68 16.98 13.39 16.76L13.3 16.69L9.23 12.59C8.93 12.3 8.93 11.82 9.23 11.53C9.49 11.27 9.91 11.24 10.2 11.46L10.29 11.53L13.83 15.1L17.38 11.53Z" fill="#272829" fill-opacity="1.000000" fill-rule="nonzero"/>
	<path id="Stroke 5" d="M3.91 -0.92C4.29 -0.92 4.6 -0.64 4.65 -0.27L4.66 -0.17L4.66 13.45C4.66 13.86 4.32 14.2 3.91 14.2C3.53 14.2 3.21 13.91 3.16 13.55L3.16 13.45L3.16 -0.17C3.16 -0.59 3.49 -0.92 3.91 -0.92Z" fill="#272829" fill-opacity="1.000000" fill-rule="nonzero"/>
	<path id="Stroke 7" d="M3.37 -0.7C3.64 -0.97 4.06 -0.99 4.35 -0.78L4.44 -0.7L8.52 3.39C8.81 3.69 8.81 4.16 8.51 4.45C8.25 4.72 7.83 4.74 7.54 4.53L7.45 4.45L3.91 0.89L0.36 4.45C0.09 4.72 -0.32 4.75 -0.62 4.53L-0.7 4.45C-0.97 4.19 -0.99 3.77 -0.78 3.48L-0.7 3.39L3.37 -0.7Z" fill="#272829" fill-opacity="1.000000" fill-rule="nonzero"/>
</svg>
