<svg xmlns="http://www.w3.org/2000/svg" width="103" height="22" viewBox="0 0 103 22" fill="none">
  <g clip-path="url(#clip0_1566_7398)">
    <path d="M102.421 14.6997C102.101 14.6997 101.842 14.9602 101.842 15.281C101.842 15.6018 102.101 15.8624 102.421 15.8624C102.74 15.8624 103 15.6018 103 15.281C103 14.9602 102.74 14.6997 102.421 14.6997ZM102.421 15.7702C102.152 15.7702 101.934 15.5501 101.934 15.281C101.934 15.0106 102.153 14.7919 102.421 14.7919C102.69 14.7919 102.909 15.0119 102.909 15.281C102.909 15.5502 102.69 15.7702 102.421 15.7702ZM102.609 15.1815C102.609 15.0758 102.535 15.0131 102.425 15.0131H102.24V15.5428H102.33V15.3511H102.429L102.525 15.5428H102.623L102.518 15.3314C102.574 15.3056 102.609 15.2539 102.609 15.1815ZM102.421 15.2687H102.332V15.093H102.421C102.482 15.093 102.519 15.1237 102.519 15.1803C102.519 15.238 102.481 15.2687 102.421 15.2687ZM32.6588 8.81619V7.41015H30.5118V15.7751H32.6588V10.7594C32.6588 9.85107 33.239 9.4049 34.1436 9.4049H35.3186V7.41018H34.3149C33.5291 7.41015 32.8461 7.82188 32.6588 8.81619ZM37.3298 4.10156C36.5953 4.10156 36.0323 4.68414 36.0323 5.42157C36.0323 6.14179 36.5953 6.72437 37.3298 6.72437C38.0642 6.72437 38.6272 6.14179 38.6272 5.42157C38.6272 4.68411 38.0642 4.10156 37.3298 4.10156ZM36.2587 15.7751H38.4008V7.41015H36.2587V15.7751ZM48.6044 11.5926C48.6044 13.9806 46.6766 15.9164 44.2982 15.9164C43.3386 15.9164 42.4683 15.6006 41.7705 15.0672V18.2308H39.6285V7.41015H41.7705V8.11807C42.4683 7.58467 43.3386 7.26881 44.2982 7.26881C46.6766 7.26881 48.6044 9.20457 48.6044 11.5926ZM46.4489 11.5926C46.4489 10.296 45.4011 9.24389 44.1097 9.24389C42.8184 9.24389 41.7706 10.296 41.7706 11.5926C41.7706 12.8893 42.8184 13.9413 44.1097 13.9413C45.4011 13.9413 46.4489 12.8905 46.4489 11.5926ZM85.8351 10.8589L84.5854 10.5147C83.7628 10.2996 83.4433 10.0465 83.4433 9.61016C83.4433 9.1849 83.8938 8.88748 84.5376 8.88748C85.1509 8.88748 85.6319 9.2906 85.6319 9.80679V9.85471H87.6063V9.80679C87.6063 8.28889 86.3737 7.26878 84.5376 7.26878C82.72 7.26878 81.3992 8.28766 81.3992 9.69246C81.3992 10.7851 82.1201 11.6086 83.3784 11.9502L84.5756 12.2784C85.485 12.5316 85.8229 12.8118 85.8229 13.3145C85.8229 13.8442 85.3345 14.2007 84.6074 14.2007C83.8497 14.2007 83.3393 13.7188 83.3393 13.0035V12.9556H81.2437V13.0035C81.2437 14.7193 82.6195 15.9189 84.5903 15.9189C86.4888 15.9189 87.8671 14.7476 87.8671 13.1351C87.867 12.3435 87.5145 11.3087 85.8351 10.8589ZM56.2034 7.41015H58.3454V15.7751H56.2034V15.0671C55.5056 15.6005 54.6353 15.9164 53.6757 15.9164C51.2974 15.9164 49.3695 13.9806 49.3695 11.5926C49.3695 9.20451 51.2974 7.26878 53.6757 7.26878C54.6353 7.26878 55.5057 7.58464 56.2034 8.11804V7.41015ZM56.2034 11.5926C56.2034 10.2947 55.1556 9.24389 53.8642 9.24389C52.5728 9.24389 51.525 10.296 51.525 11.5926C51.525 12.8893 52.5728 13.9413 53.8642 13.9413C55.1568 13.9413 56.2034 12.8905 56.2034 11.5926ZM66.0802 4.4334H68.2223V15.7763H66.0802V15.0684C65.3825 15.6018 64.5122 15.9176 63.5526 15.9176C61.1742 15.9176 59.2463 13.9819 59.2463 11.5938C59.2463 9.20575 61.1742 7.27001 63.5526 7.27001C64.5122 7.27001 65.3825 7.58588 66.0802 8.11928V4.4334ZM66.0802 11.5926C66.0802 10.296 65.0324 9.24389 63.741 9.24389C62.4497 9.24389 61.4019 10.296 61.4019 11.5926C61.4019 12.8893 62.4484 13.9413 63.741 13.9413C65.0324 13.9413 66.0802 12.8905 66.0802 11.5926ZM78.1677 15.7751H80.3097V7.41015H78.1677V15.7751ZM79.2387 4.10156C78.5043 4.10156 77.9412 4.68414 77.9412 5.42157C77.9412 6.14179 78.5043 6.72437 79.2387 6.72437C79.9731 6.72437 80.5362 6.14179 80.5362 5.42157C80.5362 4.68411 79.9731 4.10156 79.2387 4.10156ZM97.1257 11.5926C97.1257 13.9806 95.1979 15.9164 92.8195 15.9164C90.4412 15.9164 88.5133 13.9807 88.5133 11.5926C88.5133 9.20454 90.4412 7.26881 92.8195 7.26881C95.1979 7.26881 97.1257 9.20457 97.1257 11.5926ZM95.1587 11.5926C95.1587 10.296 94.1109 9.24389 92.8195 9.24389C91.5281 9.24389 90.4804 10.296 90.4804 11.5926C90.4804 12.8893 91.5269 13.9413 92.8195 13.9413C94.1109 13.9413 95.1587 12.8905 95.1587 11.5926ZM31.562 4.4334H23.345V6.35196H26.3867V15.7751H28.5215V6.35196H31.5633V4.4334H31.562ZM73.1173 13.4841L71.2114 7.41018H68.9616L71.8198 15.7751H74.3976L77.2729 7.41018H75.023L73.1173 13.4841ZM100.264 8.81619V7.41015H98.1172V15.7751H100.264V10.7594C100.264 9.85107 100.844 9.4049 101.749 9.4049H102.924V7.41018H101.92C101.134 7.41015 100.453 7.82188 100.264 8.81619Z" fill="black"/>
    <path d="M10.9552 21.9961C17.0056 21.9961 21.9105 17.0712 21.9105 10.9961C21.9105 4.92096 17.0056 -0.00390625 10.9552 -0.00390625C4.90482 -0.00390625 0 4.92096 0 10.9961C0 17.0712 4.90482 21.9961 10.9552 21.9961Z" fill="#34E0A1"/>
    <path d="M17.7217 8.8456L19.0437 7.40145H16.1121C14.6445 6.39484 12.8721 5.80859 10.9552 5.80859C9.04077 5.80859 7.27327 6.39611 5.80807 7.40145H2.86914L4.19111 8.8456C3.38081 9.58793 2.87283 10.6572 2.87283 11.8445C2.87283 14.085 4.68199 15.9016 6.91343 15.9016C7.97346 15.9016 8.93921 15.4911 9.66019 14.82L10.9552 16.2359L12.2503 14.8212C12.9712 15.4923 13.9358 15.9016 14.9958 15.9016C17.2272 15.9016 19.0388 14.085 19.0388 11.8445C19.04 10.656 18.5321 9.58673 17.7217 8.8456ZM6.91463 14.5902C5.40413 14.5902 4.18012 13.3612 4.18012 11.8445C4.18012 10.3278 5.40416 9.09878 6.91463 9.09878C8.42509 9.09878 9.64913 10.3278 9.64913 11.8445C9.64913 13.3612 8.42509 14.5902 6.91463 14.5902ZM10.9564 11.7646C10.9564 9.95788 9.64794 8.40683 7.92079 7.74436C8.85473 7.35227 9.87926 7.13474 10.9552 7.13474C12.0311 7.13474 13.0569 7.35227 13.9908 7.74436C12.265 8.40806 10.9564 9.95791 10.9564 11.7646ZM14.997 14.5902C13.4865 14.5902 12.2625 13.3612 12.2625 11.8445C12.2625 10.3278 13.4865 9.09878 14.997 9.09878C16.5075 9.09878 17.7315 10.3278 17.7315 11.8445C17.7315 13.3612 16.5075 14.5902 14.997 14.5902ZM14.997 10.404C14.2051 10.404 13.5636 11.048 13.5636 11.8433C13.5636 12.6384 14.2051 13.2825 14.997 13.2825C15.789 13.2825 16.4304 12.6384 16.4304 11.8433C16.4304 11.0493 15.789 10.404 14.997 10.404ZM8.34798 11.8445C8.34798 12.6397 7.70657 13.2837 6.91463 13.2837C6.12268 13.2837 5.48127 12.6397 5.48127 11.8445C5.48127 11.0493 6.12268 10.4052 6.91463 10.4052C7.70657 10.404 8.34798 11.0493 8.34798 11.8445Z" fill="black"/>
  </g>
  <defs>
    <clipPath id="clip0_1566_7398">
      <rect width="103" height="22" fill="white"/>
    </clipPath>
  </defs>
</svg>