<svg width="30" height="30" viewBox="0 0 30 30" fill="none" xmlns="http://www.w3.org/2000/svg">
<g clip-path="url(#clip0_5531_12262)">
<path d="M28.8043 15.0002C28.8043 18.6875 27.3684 22.1541 24.7611 24.7614C22.1538 27.3687 18.6873 28.8046 15 28.8046C11.3126 28.8046 7.84606 27.3687 5.23876 24.7614C2.63145 22.1541 1.19556 18.6875 1.19556 15.0002C1.19556 11.3129 2.63145 7.84631 5.23876 5.239C7.84606 2.6317 11.3126 1.1958 15 1.1958C18.6873 1.1958 22.1538 2.6317 24.7611 5.239C27.3684 7.84631 28.8043 11.3129 28.8043 15.0002Z" fill="#DC0917"/>
<path d="M17.9747 19.4979C16.8501 20.5315 15.3839 21.0995 13.8558 21.0998C5.81213 20.8894 5.81465 9.11062 13.8556 8.90039C15.3861 8.90109 16.8562 9.47004 17.9804 10.5081C18.0423 10.5768 18.057 10.6809 18.0166 10.7639C17.9644 10.8773 17.8178 10.9295 17.706 10.8732C17.0868 10.5762 16.422 10.4256 15.7298 10.4256C13.2073 10.4256 11.1552 12.4777 11.1553 15.0001C11.0814 18.2931 14.7762 20.6047 17.7056 19.1273C17.7971 19.083 17.9113 19.1051 17.9785 19.1803H17.9786C18.0043 19.2091 18.0232 19.2439 18.0325 19.2813C18.0513 19.3581 18.0299 19.4404 17.9747 19.4979ZM22.906 16.3559L21.8663 14.9152L22.8868 13.4101C22.9394 13.3327 22.9366 13.2304 22.8801 13.1558C22.8235 13.0813 22.7257 13.051 22.637 13.0806L20.9697 13.6372L19.8919 12.2796C19.8344 12.2069 19.7372 12.1786 19.6496 12.2089C19.562 12.2393 19.5031 12.3216 19.5027 12.4144L19.4965 14.1287L17.8108 14.6913C17.7222 14.7208 17.6623 14.8034 17.6616 14.8969C17.661 14.9902 17.7198 15.0735 17.8079 15.1044L19.4765 15.6869L19.4972 17.492C19.4983 17.5855 19.5589 17.6681 19.6479 17.697C19.6701 17.7042 19.693 17.7078 19.7154 17.7078C19.783 17.7078 19.8483 17.6762 19.8904 17.62L20.9801 16.1606L22.6632 16.6919C22.753 16.7203 22.8508 16.688 22.9058 16.6117C22.9611 16.5353 22.9611 16.4323 22.906 16.3559Z" fill="#EFEFEF"/>
</g>
<defs>
<clipPath id="clip0_5531_12262">
<rect width="30" height="30" fill="white"/>
</clipPath>
</defs>
</svg>
