<svg width="26" height="26" viewBox="0 0 26 26" fill="none" xmlns="http://www.w3.org/2000/svg">
<path d="M7.75 12.125C9.42708 12.125 12.125 9.42708 12.125 7.75C12.125 6.07292 9.42708 3.375 7.75 3.375C6.07292 3.375 3.375 6.07292 3.375 7.75C3.375 9.42708 6.07292 12.125 7.75 12.125Z" fill="#235DFF"/>
<path d="M18.25 22.625C19.9271 22.625 22.625 19.9271 22.625 18.25C22.625 16.5729 19.9271 13.875 18.25 13.875C16.5729 13.875 13.875 16.5729 13.875 18.25C13.875 19.9271 16.5729 22.625 18.25 22.625Z" fill="#235DFF"/>
<path d="M4.25 18.25C4.25 17.7668 4.64175 17.375 5.125 17.375H11.25C11.7332 17.375 12.125 17.7668 12.125 18.25C12.125 18.7332 11.7332 19.125 11.25 19.125H5.125C4.64175 19.125 4.25 18.7332 4.25 18.25Z" fill="#235DFF"/>
<path d="M14.75 6.875C14.2668 6.875 13.875 7.26675 13.875 7.75C13.875 8.23325 14.2668 8.625 14.75 8.625H20.875C21.3582 8.625 21.75 8.23325 21.75 7.75C21.75 7.26675 21.3582 6.875 20.875 6.875H14.75Z" fill="#235DFF"/>
</svg>
