<svg width="57" height="57" viewBox="0 0 57 57" fill="none" xmlns="http://www.w3.org/2000/svg">
<path d="M48.2362 16.4606C48.0025 16.4606 47.8038 16.4153 47.6402 16.3246C47.4766 16.2339 47.3481 16.0752 47.2546 15.8484L45.2214 11.2232L40.1033 9.04654C39.8696 8.95585 39.706 8.83115 39.6125 8.67243C39.5191 8.51372 39.4723 8.321 39.4723 8.09427C39.4723 7.86754 39.5191 7.67482 39.6125 7.51611C39.706 7.3574 39.8696 7.2327 40.1033 7.142L45.2214 5.03341L47.2546 0.612172C47.3481 0.385442 47.4766 0.22673 47.6402 0.136038C47.8038 0.0453461 48.0025 0 48.2362 0C48.4699 0 48.6685 0.0453461 48.8321 0.136038C48.9957 0.22673 49.1242 0.385442 49.2177 0.612172L51.2509 5.03341L56.369 7.142C56.6027 7.2327 56.7663 7.3574 56.8598 7.51611C56.9533 7.67482 57 7.86754 57 8.09427C57 8.321 56.9533 8.51372 56.8598 8.67243C56.7663 8.83115 56.6027 8.95585 56.369 9.04654L51.2509 11.2232L49.2177 15.8484C49.1242 16.0752 48.9957 16.2339 48.8321 16.3246C48.6685 16.4153 48.4699 16.4606 48.2362 16.4606ZM48.2362 57C48.0492 57 47.8622 56.9547 47.6753 56.864C47.4883 56.7733 47.3481 56.6146 47.2546 56.3878L45.2214 51.9666L40.1734 49.858C39.9397 49.7673 39.7761 49.6426 39.6827 49.4839C39.5892 49.3252 39.5424 49.1325 39.5424 48.9057C39.5424 48.679 39.5892 48.4863 39.6827 48.3276C39.7761 48.1689 39.9397 48.0442 40.1734 47.9535L45.2214 45.8449L47.2546 41.1516C47.3481 40.9248 47.4766 40.7661 47.6402 40.6754C47.8038 40.5847 48.0025 40.5394 48.2362 40.5394C48.4699 40.5394 48.6685 40.5847 48.8321 40.6754C48.9957 40.7661 49.1242 40.9248 49.2177 41.1516L51.2509 45.8449L56.2989 47.9535C56.5326 48.0442 56.6962 48.1689 56.7897 48.3276C56.8831 48.4863 56.9299 48.679 56.9299 48.9057C56.9299 49.1325 56.8831 49.3252 56.7897 49.4839C56.6962 49.6426 56.5326 49.7673 56.2989 49.858L51.2509 51.9666L49.2177 56.3878C49.1242 56.6146 48.984 56.7733 48.797 56.864C48.6101 56.9547 48.4231 57 48.2362 57ZM17.4576 45.2327C17.0836 45.2327 16.7214 45.1307 16.3708 44.9266C16.0203 44.7226 15.7515 44.4391 15.5646 44.0764L11.0074 34.6217L1.19188 30.3365C0.817958 30.1551 0.52583 29.8944 0.315498 29.5543C0.105166 29.2142 0 28.8628 0 28.5C0 28.1372 0.105166 27.7858 0.315498 27.4457C0.52583 27.1056 0.817958 26.8449 1.19188 26.6635L11.0074 22.3783L15.5646 12.9916C15.7515 12.5835 16.0203 12.2774 16.3708 12.0734C16.7214 11.8693 17.0836 11.7673 17.4576 11.7673C17.8315 11.7673 18.1937 11.8693 18.5443 12.0734C18.8948 12.2774 19.1636 12.5609 19.3506 12.9236L23.9779 22.3783L33.7232 26.6635C34.1439 26.8449 34.4594 27.1056 34.6697 27.4457C34.8801 27.7858 34.9852 28.1372 34.9852 28.5C34.9852 28.8628 34.8801 29.2142 34.6697 29.5543C34.4594 29.8944 34.1439 30.1551 33.7232 30.3365L23.9779 34.6217L19.3506 44.0764C19.1636 44.4845 18.8948 44.7792 18.5443 44.9606C18.1937 45.142 17.8315 45.2327 17.4576 45.2327ZM17.4576 37.9547L20.8229 31.4248L27.6937 28.5L20.8229 25.5752L17.4576 19.0453L14.1624 25.5752L7.2214 28.5L14.1624 31.4248L17.4576 37.9547Z" fill="white"/>
</svg>
